<?xml version="1.0" standalone="yes"?>

<svg version="1.1" viewBox="0.0 0.0 935.5328083989501 360.9448818897638" fill="none" stroke="none" stroke-linecap="square" stroke-miterlimit="10" xmlns="http://www.w3.org/2000/svg" xmlns:xlink="http://www.w3.org/1999/xlink"><clipPath id="p.0"><path d="m0 0l935.53284 0l0 360.9449l-935.53284 0l0 -360.9449z" clip-rule="nonzero"></path></clipPath><g clip-path="url(#p.0)"><path fill="#000000" fill-opacity="0.0" d="m0 0l935.53284 0l0 360.9449l-935.53284 0z" fill-rule="evenodd"></path><path fill="#cfe2f3" d="m24.031496 117.48994l0 0c0 -5.751396 31.633257 -10.413818 70.65486 -10.413818c39.02159 0 70.65485 4.662422 70.65485 10.413818l0 41.655296c0 5.7513885 -31.633255 10.413818 -70.65485 10.413818c-39.021603 0 -70.65486 -4.66243 -70.65486 -10.413818z" fill-rule="evenodd"></path><path fill="#000000" fill-opacity="0.0" d="m165.3412 117.48994l0 0c0 5.751396 -31.633255 10.413826 -70.65485 10.413826c-39.021603 0 -70.65486 -4.66243 -70.65486 -10.413826" fill-rule="evenodd"></path><path fill="#000000" fill-opacity="0.0" d="m24.031496 117.48994l0 0c0 -5.751396 31.633257 -10.413818 70.65486 -10.413818c39.02159 0 70.65485 4.662422 70.65485 10.413818l0 41.655296c0 5.7513885 -31.633255 10.413818 -70.65485 10.413818c-39.021603 0 -70.65486 -4.66243 -70.65486 -10.413818z" fill-rule="evenodd"></path><path stroke="#000000" stroke-width="1.0" stroke-linejoin="round" stroke-linecap="butt" d="m165.3412 117.48994l0 0c0 5.751396 -31.633255 10.413826 -70.65485 10.413826c-39.021603 0 -70.65486 -4.66243 -70.65486 -10.413826" fill-rule="evenodd"></path><path stroke="#000000" stroke-width="1.0" stroke-linejoin="round" stroke-linecap="butt" d="m24.031496 117.48994l0 0c0 -5.751396 31.633257 -10.413818 70.65486 -10.413818c39.02159 0 70.65485 4.662422 70.65485 10.413818l0 41.655296c0 5.7513885 -31.633255 10.413818 -70.65485 10.413818c-39.021603 0 -70.65486 -4.66243 -70.65486 -10.413818z" fill-rule="evenodd"></path><path fill="#000000" d="m64.57634 136.85074l1.859375 0l0 9.3125q0 1.234375 0.78125 2.046875q0.796875 0.796875 2.09375 0.796875q1.375 0 2.15625 -0.78125q0.796875 -0.78125 0.796875 -2.109375l0 -9.265625l1.84375 0l0 9.453125q0 2.0625 -1.28125 3.21875q-1.28125 1.15625 -3.5 1.15625q-2.28125 0 -3.515625 -1.125q-1.234375 -1.140625 -1.234375 -3.25l0 -9.453125zm20.878662 13.78125l-7.015625 -9.9375l0 9.75l-1.765625 0l0 -13.59375l0.75 0l6.828125 9.40625l0 -9.40625l1.765625 0l0 13.78125l-0.5625 0zm10.604797 -5.421875l0 5.234375l-1.859375 0l0 -13.59375q2.109375 -0.09375 2.546875 -0.09375q5.921875 0 5.921875 3.96875q0 4.578125 -5.234375 4.578125q-0.3125 0 -1.375 -0.09375zm0 -6.6875l0 5.015625q1.171875 0.09375 1.234375 0.09375q3.453125 0 3.453125 -2.71875q0 -2.484375 -3.671875 -2.484375q-0.375 0 -1.015625 0.09375zm7.9030457 5.015625q0 -2.953125 1.46875 -4.9375q1.484375 -1.984375 4.0 -1.984375q2.828125 0 4.328125 1.828125q1.515625 1.828125 1.515625 5.09375q0 3.34375 -1.515625 5.25q-1.515625 1.890625 -4.328125 1.890625q-2.578125 0 -4.03125 -2.0q-1.4375 -2.015625 -1.4375 -5.140625zm1.9375 0q0 2.328125 0.921875 3.90625q0.921875 1.5625 2.609375 1.5625q1.90625 0 2.890625 -1.4375q1.0 -1.4375 1.0 -4.03125q0 -5.25 -3.890625 -5.25q-1.734375 0 -2.640625 1.40625q-0.890625 1.40625 -0.890625 3.84375zm13.133606 1.671875l0 5.234375l-1.859375 0l0 -13.59375q2.109375 -0.09375 2.546875 -0.09375q5.921875 0 5.921875 3.96875q0 4.578125 -5.234375 4.578125q-0.3125 0 -1.375 -0.09375zm0 -6.6875l0 5.015625q1.171875 0.09375 1.234375 0.09375q3.453125 0 3.453125 -2.71875q0 -2.484375 -3.671875 -2.484375q-0.375 0 -1.015625 0.09375z" fill-rule="nonzero"></path><path fill="#cfe2f3" d="m24.031496 33.23797l0 0c0 -5.7513943 31.633257 -10.413822 70.65486 -10.413822c39.02159 0 70.65485 4.662428 70.65485 10.413822l0 41.655296c0 5.751396 -31.633255 10.413826 -70.65485 10.413826c-39.021603 0 -70.65486 -4.66243 -70.65486 -10.413826z" fill-rule="evenodd"></path><path fill="#000000" fill-opacity="0.0" d="m165.3412 33.23797l0 0c0 5.751396 -31.633255 10.413826 -70.65485 10.413826c-39.021603 0 -70.65486 -4.66243 -70.65486 -10.413826" fill-rule="evenodd"></path><path fill="#000000" fill-opacity="0.0" d="m24.031496 33.23797l0 0c0 -5.7513943 31.633257 -10.413822 70.65486 -10.413822c39.02159 0 70.65485 4.662428 70.65485 10.413822l0 41.655296c0 5.751396 -31.633255 10.413826 -70.65485 10.413826c-39.021603 0 -70.65486 -4.66243 -70.65486 -10.413826z" fill-rule="evenodd"></path><path stroke="#000000" stroke-width="1.0" stroke-linejoin="round" stroke-linecap="butt" d="m165.3412 33.23797l0 0c0 5.751396 -31.633255 10.413826 -70.65485 10.413826c-39.021603 0 -70.65486 -4.66243 -70.65486 -10.413826" fill-rule="evenodd"></path><path stroke="#000000" stroke-width="1.0" stroke-linejoin="round" stroke-linecap="butt" d="m24.031496 33.23797l0 0c0 -5.7513943 31.633257 -10.413822 70.65486 -10.413822c39.02159 0 70.65485 4.662428 70.65485 10.413822l0 41.655296c0 5.751396 -31.633255 10.413826 -70.65485 10.413826c-39.021603 0 -70.65486 -4.66243 -70.65486 -10.413826z" fill-rule="evenodd"></path><path fill="#000000" d="m79.770615 53.098778l-0.625 1.59375q-0.890625 -0.65625 -2.796875 -0.65625q-1.78125 0 -2.875 1.546875q-1.078125 1.53125 -1.078125 3.96875q0 2.3125 1.109375 3.765625q1.109375 1.4375 2.859375 1.4375q1.921875 0 2.953125 -1.359375l1.015625 1.421875q-1.609375 1.609375 -4.15625 1.609375q-2.671875 0 -4.203125 -1.921875q-1.515625 -1.921875 -1.515625 -5.0625q0 -3.046875 1.625 -5.0625q1.640625 -2.015625 4.21875 -2.015625q2.21875 0 3.46875 0.734375zm5.221634 13.09375l-2.734375 0l0 -13.59375q2.625 -0.09375 3.34375 -0.09375q2.859375 0 4.515625 1.734375q1.65625 1.734375 1.65625 4.609375q0 7.34375 -6.78125 7.34375zm-0.875 -11.921875l0 10.15625q0.625 0.09375 1.53125 0.09375q1.953125 0 3.0625 -1.453125q1.125 -1.46875 1.125 -4.0625q0 -4.828125 -4.34375 -4.828125q-0.25 0 -1.375 0.09375zm9.910278 11.921875l0 -13.59375l1.859375 0l0 13.59375l-1.859375 0zm12.583038 0l-0.9375 -2.859375l-5.046875 0l-1.015625 2.859375l-2.078125 0l5.53125 -13.78125l0.484375 0l5.125 13.78125l-2.0625 0zm-3.390625 -10.21875l-2.109375 5.984375l4.03125 0l-1.921875 -5.984375zm15.348022 -2.875l-0.625 1.59375q-0.890625 -0.65625 -2.796875 -0.65625q-1.78125 0 -2.875 1.546875q-1.078125 1.53125 -1.078125 3.96875q0 2.3125 1.109375 3.765625q1.109375 1.4375 2.859375 1.4375q1.921875 0 2.953125 -1.359375l1.015625 1.421875q-1.609375 1.609375 -4.15625 1.609375q-2.671875 0 -4.203125 -1.921875q-1.515625 -1.921875 -1.515625 -5.0625q0 -3.046875 1.625 -5.0625q1.640625 -2.015625 4.21875 -2.015625q2.21875 0 3.46875 0.734375z" fill-rule="nonzero"></path><path fill="#cfe2f3" d="m221.9895 169.07874l35.87033 -61.52231l143.48138 0l-35.87036 61.52231z" fill-rule="evenodd"></path><path stroke="#000000" stroke-width="1.0" stroke-linejoin="round" stroke-linecap="butt" d="m221.9895 169.07874l35.87033 -61.52231l143.48138 0l-35.87036 61.52231z" fill-rule="evenodd"></path><path fill="#000000" d="m269.7817 124.30008l0 6.34375q0 2.296875 2.0 2.296875q0.875 0 1.59375 -0.5q0.71875 -0.5 0.953125 -1.15625l0 -6.984375l1.765625 0l0 9.9375l-1.765625 0l0 -1.375q-0.296875 0.59375 -1.203125 1.078125q-0.890625 0.484375 -1.734375 0.484375q-1.640625 0 -2.515625 -0.9375q-0.859375 -0.9375 -0.859375 -2.671875l0 -6.515625l1.765625 0zm14.6310425 9.9375l0 -5.78125q0 -1.578125 -0.484375 -2.21875q-0.46875 -0.640625 -1.59375 -0.640625q-0.59375 0 -1.25 0.375q-0.65625 0.359375 -1.015625 0.875l0 7.390625l-1.765625 0l0 -9.9375l1.203125 0l0.5625 1.28125q0.875 -1.46875 2.84375 -1.46875q3.265625 0 3.265625 3.96875l0 6.15625l-1.765625 0zm11.470337 -0.546875l0 4.4375l-1.765625 0l0 -13.828125l1.765625 0l0 0.8125q1.0 -1.0 2.421875 -1.0q2.109375 0 3.28125 1.328125q1.1875 1.3125 1.1875 3.859375q0 2.25 -1.1875 3.6875q-1.1875 1.4375 -3.4375 1.4375q-0.625 0 -1.34375 -0.21875q-0.71875 -0.234375 -0.921875 -0.515625zm0 -7.25l0 5.796875q0.171875 0.25 0.703125 0.484375q0.546875 0.21875 1.046875 0.21875q3.28125 0 3.28125 -3.71875q0 -1.875 -0.78125 -2.75q-0.765625 -0.875 -2.484375 -0.875q-0.375 0 -0.921875 0.265625q-0.53125 0.25 -0.84375 0.578125zm7.987671 2.8125q0 -2.3125 1.234375 -3.71875q1.234375 -1.421875 3.265625 -1.421875q2.125 0 3.296875 1.359375q1.1875 1.359375 1.1875 3.78125q0 2.390625 -1.203125 3.78125q-1.203125 1.390625 -3.28125 1.390625q-2.125 0 -3.3125 -1.390625q-1.1875 -1.40625 -1.1875 -3.78125zm1.84375 0q0 3.734375 2.65625 3.734375q1.234375 0 1.921875 -1.0q0.703125 -1.0 0.703125 -2.734375q0 -3.703125 -2.625 -3.703125q-1.21875 0 -1.9375 0.984375q-0.71875 0.984375 -0.71875 2.71875zm10.573853 4.4375l0 4.4375l-1.765625 0l0 -13.828125l1.765625 0l0 0.8125q1.0 -1.0 2.421875 -1.0q2.109375 0 3.28125 1.328125q1.1875 1.3125 1.1875 3.859375q0 2.25 -1.1875 3.6875q-1.1875 1.4375 -3.4375 1.4375q-0.625 0 -1.34375 -0.21875q-0.71875 -0.234375 -0.921875 -0.515625zm0 -7.25l0 5.796875q0.171875 0.25 0.703125 0.484375q0.546875 0.21875 1.046875 0.21875q3.28125 0 3.28125 -3.71875q0 -1.875 -0.78125 -2.75q-0.765625 -0.875 -2.484375 -0.875q-0.375 0 -0.921875 0.265625q-0.53125 0.25 -0.84375 0.578125z" fill-rule="nonzero"></path><path fill="#000000" d="m277.29733 156.42508l-0.46875 0l-2.90625 -6.765625l-2.90625 6.765625l-0.46875 0l-3.546875 -10.15625l1.875 0l2.125 6.53125l2.65625 -6.53125l0.453125 0l2.734375 6.53125l2.28125 -6.53125l1.734375 0l-3.5625 10.15625zm6.4609985 -0.734375l0 4.4375l-1.765625 0l0 -13.828125l1.765625 0l0 0.8125q1.0 -1.0 2.421875 -1.0q2.109375 0 3.28125 1.328125q1.1875 1.3125 1.1875 3.859375q0 2.25 -1.1875 3.6875q-1.1875 1.4375 -3.4375 1.4375q-0.625 0 -1.34375 -0.21875q-0.71875 -0.234375 -0.921875 -0.515625zm0 -7.25l0 5.796875q0.171875 0.25 0.703125 0.484375q0.546875 0.21875 1.046875 0.21875q3.28125 0 3.28125 -3.71875q0 -1.875 -0.78125 -2.75q-0.765625 -0.875 -2.484375 -0.875q-0.375 0 -0.921875 0.265625q-0.53125 0.25 -0.84375 0.578125zm10.393951 7.25l0 4.4375l-1.765625 0l0 -13.828125l1.765625 0l0 0.8125q1.0 -1.0 2.421875 -1.0q2.109375 0 3.28125 1.328125q1.1875 1.3125 1.1875 3.859375q0 2.25 -1.1875 3.6875q-1.1875 1.4375 -3.4375 1.4375q-0.625 0 -1.34375 -0.21875q-0.71875 -0.234375 -0.921875 -0.515625zm0 -7.25l0 5.796875q0.171875 0.25 0.703125 0.484375q0.546875 0.21875 1.046875 0.21875q3.28125 0 3.28125 -3.71875q0 -1.875 -0.78125 -2.75q-0.765625 -0.875 -2.484375 -0.875q-0.375 0 -0.921875 0.265625q-0.53125 0.25 -0.84375 0.578125z" fill-rule="nonzero"></path><path fill="#cfe2f3" d="m221.9895 84.826775l35.87033 -61.522312l143.48138 0l-35.87036 61.522312z" fill-rule="evenodd"></path><path stroke="#000000" stroke-width="1.0" stroke-linejoin="round" stroke-linecap="butt" d="m221.9895 84.826775l35.87033 -61.522312l143.48138 0l-35.87036 61.522312z" fill-rule="evenodd"></path><path fill="#000000" d="m275.60983 40.860615l-0.875 1.234375q-0.265625 -0.265625 -0.953125 -0.5q-0.671875 -0.25 -1.34375 -0.25q-1.4375 0 -2.28125 1.015625q-0.84375 1.0 -0.84375 2.75q0 1.75 0.859375 2.671875q0.875 0.90625 2.40625 0.90625q1.1875 0 2.390625 -0.921875l0.6875 1.484375q-1.40625 0.921875 -3.515625 0.921875q-2.03125 0 -3.359375 -1.359375q-1.3125 -1.375 -1.3125 -3.703125q0 -2.375 1.375 -3.8125q1.375 -1.4375 3.765625 -1.4375q0.765625 0 1.671875 0.328125q0.90625 0.328125 1.328125 0.671875zm8.033905 9.109375l0 -0.734375q-0.90625 0.921875 -2.671875 0.921875q-1.859375 0 -3.015625 -1.328125q-1.15625 -1.34375 -1.15625 -3.5625q0 -2.234375 1.328125 -3.8125q1.34375 -1.59375 3.1875 -1.59375q1.53125 0 2.328125 0.734375l0 -4.625l1.765625 0l0 14.0l-1.765625 0zm0 -7.625q-0.65625 -1.0 -1.828125 -1.0q-1.40625 0 -2.296875 1.0625q-0.875 1.0625 -0.875 2.6875q0 3.59375 3.265625 3.59375q0.421875 0 1.0 -0.265625q0.59375 -0.265625 0.734375 -0.5625l0 -5.515625zm5.9252014 -6.046875q0.453125 0 0.765625 0.328125q0.328125 0.3125 0.328125 0.75q0 0.453125 -0.328125 0.78125q-0.3125 0.3125 -0.765625 0.3125q-0.453125 0 -0.78125 -0.3125q-0.3125 -0.328125 -0.3125 -0.78125q0 -0.453125 0.3125 -0.765625q0.3125 -0.3125 0.78125 -0.3125zm-0.96875 13.6875l0 -8.453125l-1.359375 0l0 -1.484375l3.125 0l0 9.9375l-1.765625 0zm10.069946 -1.140625q-1.046875 1.328125 -3.234375 1.328125q-1.171875 0 -2.03125 -0.84375q-0.84375 -0.859375 -0.84375 -2.125q0 -1.5 1.3125 -2.546875q1.328125 -1.046875 3.375 -1.046875q0.5625 0 1.265625 0.25q0 -2.421875 -2.15625 -2.421875q-1.65625 0 -2.546875 0.890625l-0.734375 -1.46875q0.5 -0.40625 1.375 -0.703125q0.890625 -0.296875 1.703125 -0.296875q2.15625 0 3.140625 0.984375q0.984375 0.984375 0.984375 3.125l0 3.5625q0 1.3125 0.765625 1.75l0 0.875q-1.0625 0 -1.609375 -0.296875q-0.53125 -0.3125 -0.765625 -1.015625zm-0.15625 -3.734375q-0.84375 -0.1875 -1.171875 -0.1875q-1.34375 0 -2.1875 0.6875q-0.84375 0.6875 -0.84375 1.625q0 1.546875 1.828125 1.546875q1.34375 0 2.375 -1.28125l0 -2.390625zm11.848694 -4.25l-0.875 1.234375q-0.265625 -0.265625 -0.953125 -0.5q-0.671875 -0.25 -1.34375 -0.25q-1.4375 0 -2.28125 1.015625q-0.84375 1.0 -0.84375 2.75q0 1.75 0.859375 2.671875q0.875 0.90625 2.40625 0.90625q1.1875 0 2.390625 -0.921875l0.6875 1.484375q-1.40625 0.921875 -3.515625 0.921875q-2.03125 0 -3.359375 -1.359375q-1.3125 -1.375 -1.3125 -3.703125q0 -2.375 1.375 -3.8125q1.375 -1.4375 3.765625 -1.4375q0.765625 0 1.671875 0.328125q0.90625 0.328125 1.328125 0.671875z" fill-rule="nonzero"></path><path fill="#000000" d="m275.60983 62.860615l-0.875 1.2343712q-0.265625 -0.2656212 -0.953125 -0.4999962q-0.671875 -0.25 -1.34375 -0.25q-1.4375 0 -2.28125 1.0156212q-0.84375 1.0 -0.84375 2.75q0 1.75 0.859375 2.671875q0.875 0.90625 2.40625 0.90625q1.1875 0 2.390625 -0.921875l0.6875 1.484375q-1.40625 0.921875 -3.515625 0.921875q-2.03125 0 -3.359375 -1.359375q-1.3125 -1.375 -1.3125 -3.703125q0 -2.375 1.375 -3.8124962q1.375 -1.4375 3.765625 -1.4375q0.765625 0 1.671875 0.328125q0.90625 0.328125 1.328125 0.671875zm1.096405 4.140621q0 -2.3125 1.234375 -3.7187462q1.234375 -1.421875 3.265625 -1.421875q2.125 0 3.296875 1.359375q1.1875 1.3593712 1.1875 3.7812462q0 2.390625 -1.203125 3.78125q-1.203125 1.390625 -3.28125 1.390625q-2.125 0 -3.3125 -1.390625q-1.1875 -1.40625 -1.1875 -3.78125zm1.84375 0q0 3.734375 2.65625 3.734375q1.234375 0 1.921875 -1.0q0.703125 -1.0 0.703125 -2.734375q0 -3.7031212 -2.625 -3.7031212q-1.21875 0 -1.9375 0.9843712q-0.71875 0.984375 -0.71875 2.71875zm8.198853 4.984375l0 -0.375l4.265625 -6.515625q1.328125 -2.0468712 1.328125 -3.4843712q0 -1.875 -2.125 -1.875q-0.75 0 -1.40625 0.390625q-0.65625 0.390625 -0.953125 1.0l-1.203125 -0.984375q0.3125 -0.90625 1.234375 -1.4375q0.921875 -0.546875 2.234375 -0.546875q1.953125 0 3.0625 0.90625q1.109375 0.890625 1.109375 2.546875q0 1.53125 -1.46875 3.8593712l-3.046875 4.84375l5.3125 0l0 1.671875l-8.34375 0z" fill-rule="nonzero"></path><path fill="#cfe2f3" d="m221.9895 253.3307l35.870087 -61.52231l143.48032 0l-35.870087 61.52231z" fill-rule="evenodd"></path><path stroke="#000000" stroke-width="1.0" stroke-linejoin="round" stroke-linecap="butt" d="m221.9895 253.3307l35.870087 -61.52231l143.48032 0l-35.870087 61.52231z" fill-rule="evenodd"></path><path fill="#000000" d="m267.7502 221.2083l0.953125 -1.40625q1.546875 1.03125 2.84375 1.03125q1.1875 0 1.875 -0.421875q0.703125 -0.40625 0.703125 -1.015625q0 -1.21875 -1.75 -1.21875q-0.296875 0 -1.078125 0.15625q-0.765625 0.140625 -1.203125 0.140625q-2.125 0 -2.125 -1.59375q0 -0.484375 0.5 -0.875q0.5 -0.40625 1.234375 -0.59375q-2.09375 -0.96875 -2.09375 -3.40625q0 -1.5625 1.078125 -2.59375q1.078125 -1.046875 2.6875 -1.046875q1.453125 0 2.28125 0.609375l0.890625 -1.0625l1.140625 1.09375l-1.046875 0.796875q0.671875 0.875 0.671875 2.296875q0 1.5 -0.9375 2.53125q-0.9375 1.015625 -2.453125 1.15625l-1.46875 0.15625q-0.25 0.015625 -0.6875 0.1875q-0.4375 0.171875 -0.4375 0.453125q0 0.390625 0.90625 0.390625q0.40625 0 1.25 -0.140625q0.84375 -0.15625 1.25 -0.15625q1.46875 0 2.28125 0.703125q0.828125 0.703125 0.828125 1.9375q0 1.375 -1.234375 2.21875q-1.234375 0.84375 -3.109375 0.84375q-0.96875 0 -2.03125 -0.34375q-1.0625 -0.34375 -1.71875 -0.828125zm3.734375 -11.421875q-0.90625 0 -1.5 0.65625q-0.578125 0.640625 -0.578125 1.578125q0 1.03125 0.5625 1.71875q0.5625 0.671875 1.515625 0.671875q0.9375 0 1.46875 -0.65625q0.53125 -0.671875 0.53125 -1.734375q0 -0.9375 -0.578125 -1.578125q-0.5625 -0.65625 -1.421875 -0.65625zm11.598938 7.5625q-1.046875 1.328125 -3.234375 1.328125q-1.171875 0 -2.03125 -0.84375q-0.84375 -0.859375 -0.84375 -2.125q0 -1.5 1.3125 -2.546875q1.328125 -1.046875 3.375 -1.046875q0.5625 0 1.265625 0.25q0 -2.421875 -2.15625 -2.421875q-1.65625 0 -2.546875 0.890625l-0.734375 -1.46875q0.5 -0.40625 1.375 -0.703125q0.890625 -0.296875 1.703125 -0.296875q2.15625 0 3.140625 0.984375q0.984375 0.984375 0.984375 3.125l0 3.5625q0 1.3125 0.765625 1.75l0 0.875q-1.0625 0 -1.609375 -0.296875q-0.53125 -0.3125 -0.765625 -1.015625zm-0.15625 -3.734375q-0.84375 -0.1875 -1.171875 -0.1875q-1.34375 0 -2.1875 0.6875q-0.84375 0.6875 -0.84375 1.625q0 1.546875 1.828125 1.546875q1.34375 0 2.375 -1.28125l0 -2.390625zm6.114319 4.328125l0 4.4375l-1.765625 0l0 -13.828125l1.765625 0l0 0.8125q1.0 -1.0 2.421875 -1.0q2.109375 0 3.28125 1.328125q1.1875 1.3125 1.1875 3.859375q0 2.25 -1.1875 3.6875q-1.1875 1.4375 -3.4375 1.4375q-0.625 0 -1.34375 -0.21875q-0.71875 -0.234375 -0.921875 -0.515625zm0 -7.25l0 5.796875q0.171875 0.25 0.703125 0.484375q0.546875 0.21875 1.046875 0.21875q3.28125 0 3.28125 -3.71875q0 -1.875 -0.78125 -2.75q-0.765625 -0.875 -2.484375 -0.875q-0.375 0 -0.921875 0.265625q-0.53125 0.25 -0.84375 0.578125zm20.128296 7.796875l0 -6.296875q0 -2.34375 -2.03125 -2.34375q-0.640625 0 -1.203125 0.40625q-0.546875 0.390625 -0.75 0.890625l0 7.34375l-1.765625 0l0 -7.0625q0 -0.734375 -0.546875 -1.15625q-0.546875 -0.421875 -1.46875 -0.421875q-0.515625 0 -1.125 0.40625q-0.59375 0.40625 -0.84375 0.90625l0 7.328125l-1.765625 0l0 -9.9375l1.15625 0l0.578125 1.15625q1.03125 -1.34375 2.546875 -1.34375q2.140625 0 3.0 1.328125q0.296875 -0.5625 1.09375 -0.9375q0.8125 -0.390625 1.671875 -0.390625q1.53125 0 2.375 0.921875q0.84375 0.90625 0.84375 2.5625l0 6.640625l-1.765625 0zm5.81427 -13.6875q0.453125 0 0.765625 0.328125q0.328125 0.3125 0.328125 0.75q0 0.453125 -0.328125 0.78125q-0.3125 0.3125 -0.765625 0.3125q-0.453125 0 -0.78125 -0.3125q-0.3125 -0.328125 -0.3125 -0.78125q0 -0.453125 0.3125 -0.765625q0.3125 -0.3125 0.78125 -0.3125zm-0.96875 13.6875l0 -8.453125l-1.359375 0l0 -1.484375l3.125 0l0 9.9375l-1.765625 0zm10.569946 0l0 -5.78125q0 -1.578125 -0.484375 -2.21875q-0.46875 -0.640625 -1.59375 -0.640625q-0.59375 0 -1.25 0.375q-0.65625 0.359375 -1.015625 0.875l0 7.390625l-1.765625 0l0 -9.9375l1.203125 0l0.5625 1.28125q0.875 -1.46875 2.84375 -1.46875q3.265625 0 3.265625 3.96875l0 6.15625l-1.765625 0zm10.3810425 -0.015625l0 -0.734375q-0.90625 0.921875 -2.671875 0.921875q-1.859375 0 -3.015625 -1.328125q-1.15625 -1.34375 -1.15625 -3.5625q0 -2.234375 1.328125 -3.8125q1.34375 -1.59375 3.1875 -1.59375q1.53125 0 2.328125 0.734375l0 -4.625l1.765625 0l0 14.0l-1.765625 0zm0 -7.625q-0.65625 -1.0 -1.828125 -1.0q-1.40625 0 -2.296875 1.0625q-0.875 1.0625 -0.875 2.6875q0 3.59375 3.265625 3.59375q0.421875 0 1.0 -0.265625q0.59375 -0.265625 0.734375 -0.5625l0 -5.515625zm12.472046 2.84375l-7.171875 0q0 1.75 0.96875 2.6875q0.84375 0.8125 2.15625 0.8125q1.515625 0 2.53125 -0.890625l0.734375 1.28125q-0.40625 0.40625 -1.25 0.703125q-1.046875 0.390625 -2.359375 0.390625q-1.859375 0 -3.171875 -1.265625q-1.453125 -1.40625 -1.453125 -3.78125q0 -2.453125 1.484375 -3.9375q1.34375 -1.328125 3.171875 -1.328125q2.125 0 3.328125 1.203125q1.171875 1.140625 1.171875 3.046875q0 0.59375 -0.140625 1.078125zm-4.28125 -3.84375q-1.171875 0 -1.96875 0.765625q-0.765625 0.71875 -0.875 1.796875l5.5 0q0 -1.0625 -0.65625 -1.78125q-0.734375 -0.78125 -2.0 -0.78125zm11.4878235 0.40625q-0.578125 -0.40625 -1.15625 -0.40625q-0.9375 0 -1.640625 0.875q-0.703125 0.859375 -0.703125 2.0625l0 5.703125l-1.765625 0l0 -9.9375l1.765625 0l0 1.59375q0.96875 -1.78125 2.859375 -1.78125q0.484375 0 1.375 0.171875l-0.734375 1.71875z" fill-rule="nonzero"></path><path fill="#000000" d="m274.2346 240.48955l0 -6.25q0 -1.109375 -0.546875 -1.75q-0.546875 -0.640625 -1.546875 -0.640625q-0.640625 0 -1.28125 0.375q-0.640625 0.375 -0.984375 0.875l0 7.390625l-1.765625 0l0 -14.015625l1.765625 0l0 5.171875q0.359375 -0.546875 1.140625 -0.90625q0.78125 -0.375 1.609375 -0.375q1.578125 0 2.46875 1.046875q0.90625 1.03125 0.90625 2.828125l0 6.25l-1.765625 0zm5.896637 -13.6875q0.453125 0 0.765625 0.328125q0.328125 0.3125 0.328125 0.75q0 0.453125 -0.328125 0.78125q-0.3125 0.3125 -0.765625 0.3125q-0.453125 0 -0.78125 -0.3125q-0.3125 -0.328125 -0.3125 -0.78125q0 -0.453125 0.3125 -0.765625q0.3125 -0.3125 0.78125 -0.3125zm-0.96875 13.6875l0 -8.453125l-1.359375 0l0 -1.484375l3.125 0l0 9.9375l-1.765625 0zm3.8199463 -0.59375l0.609375 -1.671875q1.484375 0.96875 2.375 0.96875q1.640625 0 1.640625 -1.375q0 -0.984375 -1.578125 -1.6875q-1.21875 -0.5625 -1.640625 -0.84375q-0.421875 -0.296875 -0.734375 -0.65625q-0.3125 -0.359375 -0.46875 -0.765625q-0.140625 -0.421875 -0.140625 -0.90625q0 -1.21875 0.890625 -1.90625q0.890625 -0.6875 2.328125 -0.6875q1.078125 0 2.734375 0.6875l-0.5 1.640625q-1.046875 -0.84375 -2.109375 -0.84375q-0.625 0 -1.0625 0.296875q-0.421875 0.296875 -0.421875 0.75q0 0.953125 1.078125 1.453125l1.265625 0.578125q1.15625 0.53125 1.6875 1.203125q0.53125 0.671875 0.53125 1.703125q0 1.328125 -0.9375 2.09375q-0.9375 0.75 -2.609375 0.75q-1.5625 0 -2.9375 -0.78125zm8.833038 -7.953125l-1.15625 0l0 -1.390625l1.15625 0l0 -2.078125l1.75 -0.671875l0 2.75l2.734375 0l0 1.390625l-2.734375 0l0 4.9375q0 1.25 0.421875 1.78125q0.421875 0.53125 1.359375 0.53125q0.6875 0 1.40625 -0.34375l0.265625 1.546875q-1.09375 0.28125 -2.40625 0.28125q-1.1875 0 -2.0 -0.875q-0.796875 -0.875 -0.796875 -2.21875l0 -5.640625zm14.142456 8.0l0 4.4375l-1.765625 0l0 -13.828125l1.765625 0l0 0.8125q1.0 -1.0 2.421875 -1.0q2.109375 0 3.28125 1.328125q1.1875 1.3125 1.1875 3.859375q0 2.25 -1.1875 3.6875q-1.1875 1.4375 -3.4375 1.4375q-0.625 0 -1.34375 -0.21875q-0.71875 -0.234375 -0.921875 -0.515625zm0 -7.25l0 5.796875q0.171875 0.25 0.703125 0.484375q0.546875 0.21875 1.046875 0.21875q3.28125 0 3.28125 -3.71875q0 -1.875 -0.78125 -2.75q-0.765625 -0.875 -2.484375 -0.875q-0.375 0 -0.921875 0.265625q-0.53125 0.25 -0.84375 0.578125zm7.9877014 2.8125q0 -2.3125 1.234375 -3.71875q1.234375 -1.421875 3.265625 -1.421875q2.125 0 3.296875 1.359375q1.1875 1.359375 1.1875 3.78125q0 2.390625 -1.203125 3.78125q-1.203125 1.390625 -3.28125 1.390625q-2.125 0 -3.3125 -1.390625q-1.1875 -1.40625 -1.1875 -3.78125zm1.84375 0q0 3.734375 2.65625 3.734375q1.234375 0 1.921875 -1.0q0.703125 -1.0 0.703125 -2.734375q0 -3.703125 -2.625 -3.703125q-1.21875 0 -1.9375 0.984375q-0.71875 0.984375 -0.71875 2.71875zm10.573822 4.4375l0 4.4375l-1.765625 0l0 -13.828125l1.765625 0l0 0.8125q1.0 -1.0 2.421875 -1.0q2.109375 0 3.28125 1.328125q1.1875 1.3125 1.1875 3.859375q0 2.25 -1.1875 3.6875q-1.1875 1.4375 -3.4375 1.4375q-0.625 0 -1.34375 -0.21875q-0.71875 -0.234375 -0.921875 -0.515625zm0 -7.25l0 5.796875q0.171875 0.25 0.703125 0.484375q0.546875 0.21875 1.046875 0.21875q3.28125 0 3.28125 -3.71875q0 -1.875 -0.78125 -2.75q-0.765625 -0.875 -2.484375 -0.875q-0.375 0 -0.921875 0.265625q-0.53125 0.25 -0.84375 0.578125z" fill-rule="nonzero"></path><path fill="#cfe2f3" d="m217.80315 343.98425l35.870346 -61.52231l143.48135 0l-35.87033 61.52231z" fill-rule="evenodd"></path><path stroke="#000000" stroke-width="1.0" stroke-linejoin="round" stroke-linecap="butt" d="m217.80315 343.98425l35.870346 -61.52231l143.48135 0l-35.87033 61.52231z" fill-rule="evenodd"></path><path fill="#000000" d="m263.56412 311.86185l0.953125 -1.40625q1.546875 1.03125 2.84375 1.03125q1.1875 0 1.875 -0.421875q0.703125 -0.40625 0.703125 -1.015625q0 -1.21875 -1.75 -1.21875q-0.296875 0 -1.078125 0.15625q-0.765625 0.140625 -1.203125 0.140625q-2.125 0 -2.125 -1.59375q0 -0.484375 0.5 -0.875q0.5 -0.40625 1.234375 -0.59375q-2.09375 -0.96875 -2.09375 -3.40625q0 -1.5625 1.078125 -2.59375q1.078125 -1.046875 2.6875 -1.046875q1.453125 0 2.28125 0.609375l0.890625 -1.0625l1.140625 1.09375l-1.046875 0.796875q0.671875 0.875 0.671875 2.296875q0 1.5 -0.9375 2.53125q-0.9375 1.015625 -2.453125 1.15625l-1.46875 0.15625q-0.25 0.015625 -0.6875 0.1875q-0.4375 0.171875 -0.4375 0.453125q0 0.390625 0.90625 0.390625q0.40625 0 1.25 -0.140625q0.84375 -0.15625 1.25 -0.15625q1.46875 0 2.28125 0.703125q0.828125 0.703125 0.828125 1.9375q0 1.375 -1.234375 2.21875q-1.234375 0.84375 -3.109375 0.84375q-0.96875 0 -2.03125 -0.34375q-1.0625 -0.34375 -1.71875 -0.828125zm3.734375 -11.421875q-0.90625 0 -1.5 0.65625q-0.578125 0.640625 -0.578125 1.578125q0 1.03125 0.5625 1.71875q0.5625 0.671875 1.515625 0.671875q0.9375 0 1.46875 -0.65625q0.53125 -0.671875 0.53125 -1.734375q0 -0.9375 -0.578125 -1.578125q-0.5625 -0.65625 -1.421875 -0.65625zm11.598938 7.5625q-1.046875 1.328125 -3.234375 1.328125q-1.171875 0 -2.03125 -0.84375q-0.84375 -0.859375 -0.84375 -2.125q0 -1.5 1.3125 -2.546875q1.328125 -1.046875 3.375 -1.046875q0.5625 0 1.265625 0.25q0 -2.421875 -2.15625 -2.421875q-1.65625 0 -2.546875 0.890625l-0.734375 -1.46875q0.5 -0.40625 1.375 -0.703125q0.890625 -0.296875 1.703125 -0.296875q2.15625 0 3.140625 0.984375q0.984375 0.984375 0.984375 3.125l0 3.5625q0 1.3125 0.765625 1.75l0 0.875q-1.0625 0 -1.609375 -0.296875q-0.53125 -0.3125 -0.765625 -1.015625zm-0.15625 -3.734375q-0.84375 -0.1875 -1.171875 -0.1875q-1.34375 0 -2.1875 0.6875q-0.84375 0.6875 -0.84375 1.625q0 1.546875 1.828125 1.546875q1.34375 0 2.375 -1.28125l0 -2.390625zm6.114319 4.328125l0 4.4375l-1.765625 0l0 -13.828125l1.765625 0l0 0.8125q1.0 -1.0 2.421875 -1.0q2.109375 0 3.28125 1.328125q1.1875 1.3125 1.1875 3.859375q0 2.25 -1.1875 3.6875q-1.1875 1.4375 -3.4375 1.4375q-0.625 0 -1.34375 -0.21875q-0.71875 -0.234375 -0.921875 -0.515625zm0 -7.25l0 5.796875q0.171875 0.25 0.703125 0.484375q0.546875 0.21875 1.046875 0.21875q3.28125 0 3.28125 -3.71875q0 -1.875 -0.78125 -2.75q-0.765625 -0.875 -2.484375 -0.875q-0.375 0 -0.921875 0.265625q-0.53125 0.25 -0.84375 0.578125zm20.128296 7.796875l0 -6.296875q0 -2.34375 -2.03125 -2.34375q-0.640625 0 -1.203125 0.40625q-0.546875 0.390625 -0.75 0.890625l0 7.34375l-1.765625 0l0 -7.0625q0 -0.734375 -0.546875 -1.15625q-0.546875 -0.421875 -1.46875 -0.421875q-0.515625 0 -1.125 0.40625q-0.59375 0.40625 -0.84375 0.90625l0 7.328125l-1.765625 0l0 -9.9375l1.15625 0l0.578125 1.15625q1.03125 -1.34375 2.546875 -1.34375q2.140625 0 3.0 1.328125q0.296875 -0.5625 1.09375 -0.9375q0.8125 -0.390625 1.671875 -0.390625q1.53125 0 2.375 0.921875q0.84375 0.90625 0.84375 2.5625l0 6.640625l-1.765625 0zm5.81427 -13.6875q0.453125 0 0.765625 0.328125q0.328125 0.3125 0.328125 0.75q0 0.453125 -0.328125 0.78125q-0.3125 0.3125 -0.765625 0.3125q-0.453125 0 -0.78125 -0.3125q-0.3125 -0.328125 -0.3125 -0.78125q0 -0.453125 0.3125 -0.765625q0.3125 -0.3125 0.78125 -0.3125zm-0.96875 13.6875l0 -8.453125l-1.359375 0l0 -1.484375l3.125 0l0 9.9375l-1.765625 0zm10.569946 0l0 -5.78125q0 -1.578125 -0.484375 -2.21875q-0.46875 -0.640625 -1.59375 -0.640625q-0.59375 0 -1.25 0.375q-0.65625 0.359375 -1.015625 0.875l0 7.390625l-1.765625 0l0 -9.9375l1.203125 0l0.5625 1.28125q0.875 -1.46875 2.84375 -1.46875q3.265625 0 3.265625 3.96875l0 6.15625l-1.765625 0zm10.3810425 -0.015625l0 -0.734375q-0.90625 0.921875 -2.671875 0.921875q-1.859375 0 -3.015625 -1.328125q-1.15625 -1.34375 -1.15625 -3.5625q0 -2.234375 1.328125 -3.8125q1.34375 -1.59375 3.1875 -1.59375q1.53125 0 2.328125 0.734375l0 -4.625l1.765625 0l0 14.0l-1.765625 0zm0 -7.625q-0.65625 -1.0 -1.828125 -1.0q-1.40625 0 -2.296875 1.0625q-0.875 1.0625 -0.875 2.6875q0 3.59375 3.265625 3.59375q0.421875 0 1.0 -0.265625q0.59375 -0.265625 0.734375 -0.5625l0 -5.515625zm12.472046 2.84375l-7.171875 0q0 1.75 0.96875 2.6875q0.84375 0.8125 2.15625 0.8125q1.515625 0 2.53125 -0.890625l0.734375 1.28125q-0.40625 0.40625 -1.25 0.703125q-1.046875 0.390625 -2.359375 0.390625q-1.859375 0 -3.171875 -1.265625q-1.453125 -1.40625 -1.453125 -3.78125q0 -2.453125 1.484375 -3.9375q1.34375 -1.328125 3.171875 -1.328125q2.125 0 3.328125 1.203125q1.171875 1.140625 1.171875 3.046875q0 0.59375 -0.140625 1.078125zm-4.28125 -3.84375q-1.171875 0 -1.96875 0.765625q-0.765625 0.71875 -0.875 1.796875l5.5 0q0 -1.0625 -0.65625 -1.78125q-0.734375 -0.78125 -2.0 -0.78125zm11.4878235 0.40625q-0.578125 -0.40625 -1.15625 -0.40625q-0.9375 0 -1.640625 0.875q-0.703125 0.859375 -0.703125 2.0625l0 5.703125l-1.765625 0l0 -9.9375l1.765625 0l0 1.59375q0.96875 -1.78125 2.859375 -1.78125q0.484375 0 1.375 0.171875l-0.734375 1.71875z" fill-rule="nonzero"></path><path fill="#000000" d="m263.56412 333.86185l0.953125 -1.40625q1.546875 1.03125 2.84375 1.03125q1.1875 0 1.875 -0.421875q0.703125 -0.40625 0.703125 -1.015625q0 -1.21875 -1.75 -1.21875q-0.296875 0 -1.078125 0.15625q-0.765625 0.140625 -1.203125 0.140625q-2.125 0 -2.125 -1.59375q0 -0.484375 0.5 -0.875q0.5 -0.40625 1.234375 -0.59375q-2.09375 -0.96875 -2.09375 -3.40625q0 -1.5625 1.078125 -2.59375q1.078125 -1.046875 2.6875 -1.046875q1.453125 0 2.28125 0.609375l0.890625 -1.0625l1.140625 1.09375l-1.046875 0.796875q0.671875 0.875 0.671875 2.296875q0 1.5 -0.9375 2.53125q-0.9375 1.015625 -2.453125 1.15625l-1.46875 0.15625q-0.25 0.015625 -0.6875 0.1875q-0.4375 0.171875 -0.4375 0.453125q0 0.390625 0.90625 0.390625q0.40625 0 1.25 -0.140625q0.84375 -0.15625 1.25 -0.15625q1.46875 0 2.28125 0.703125q0.828125 0.703125 0.828125 1.9375q0 1.375 -1.234375 2.21875q-1.234375 0.84375 -3.109375 0.84375q-0.96875 0 -2.03125 -0.34375q-1.0625 -0.34375 -1.71875 -0.828125zm3.734375 -11.421875q-0.90625 0 -1.5 0.65625q-0.578125 0.640625 -0.578125 1.578125q0 1.03125 0.5625 1.71875q0.5625 0.671875 1.515625 0.671875q0.9375 0 1.46875 -0.65625q0.53125 -0.671875 0.53125 -1.734375q0 -0.9375 -0.578125 -1.578125q-0.5625 -0.65625 -1.421875 -0.65625zm14.364563 3.90625l-7.171875 0q0 1.75 0.96875 2.6875q0.84375 0.8125 2.15625 0.8125q1.515625 0 2.53125 -0.890625l0.734375 1.28125q-0.40625 0.40625 -1.25 0.703125q-1.046875 0.390625 -2.359375 0.390625q-1.859375 0 -3.171875 -1.265625q-1.453125 -1.40625 -1.453125 -3.78125q0 -2.453125 1.484375 -3.9375q1.34375 -1.328125 3.171875 -1.328125q2.125 0 3.328125 1.203125q1.171875 1.140625 1.171875 3.046875q0 0.59375 -0.140625 1.078125zm-4.28125 -3.84375q-1.171875 0 -1.96875 0.765625q-0.765625 0.71875 -0.875 1.796875l5.5 0q0 -1.0625 -0.65625 -1.78125q-0.734375 -0.78125 -2.0 -0.78125zm5.440918 3.65625q0 -2.3125 1.234375 -3.71875q1.234375 -1.421875 3.265625 -1.421875q2.125 0 3.296875 1.359375q1.1875 1.359375 1.1875 3.78125q0 2.390625 -1.203125 3.78125q-1.203125 1.390625 -3.28125 1.390625q-2.125 0 -3.3125 -1.390625q-1.1875 -1.40625 -1.1875 -3.78125zm1.84375 0q0 3.734375 2.65625 3.734375q1.234375 0 1.921875 -1.0q0.703125 -1.0 0.703125 -2.734375q0 -3.703125 -2.625 -3.703125q-1.21875 0 -1.9375 0.984375q-0.71875 0.984375 -0.71875 2.71875z" fill-rule="nonzero"></path><path fill="#cfe2f3" d="m24.031496 201.74191l0 0c0 -5.751404 31.633257 -10.413834 70.65486 -10.413834c39.02159 0 70.65485 4.66243 70.65485 10.413834l0 41.65529c0 5.7513885 -31.633255 10.413818 -70.65485 10.413818c-39.021603 0 -70.65486 -4.66243 -70.65486 -10.413818z" fill-rule="evenodd"></path><path fill="#000000" fill-opacity="0.0" d="m165.3412 201.74191l0 0c0 5.7513885 -31.633255 10.413818 -70.65485 10.413818c-39.021603 0 -70.65486 -4.66243 -70.65486 -10.413818" fill-rule="evenodd"></path><path fill="#000000" fill-opacity="0.0" d="m24.031496 201.74191l0 0c0 -5.751404 31.633257 -10.413834 70.65486 -10.413834c39.02159 0 70.65485 4.66243 70.65485 10.413834l0 41.65529c0 5.7513885 -31.633255 10.413818 -70.65485 10.413818c-39.021603 0 -70.65486 -4.66243 -70.65486 -10.413818z" fill-rule="evenodd"></path><path stroke="#000000" stroke-width="1.0" stroke-linejoin="round" stroke-linecap="butt" d="m165.3412 201.74191l0 0c0 5.7513885 -31.633255 10.413818 -70.65485 10.413818c-39.021603 0 -70.65486 -4.66243 -70.65486 -10.413818" fill-rule="evenodd"></path><path stroke="#000000" stroke-width="1.0" stroke-linejoin="round" stroke-linecap="butt" d="m24.031496 201.74191l0 0c0 -5.751404 31.633257 -10.413834 70.65486 -10.413834c39.02159 0 70.65485 4.66243 70.65485 10.413834l0 41.65529c0 5.7513885 -31.633255 10.413818 -70.65485 10.413818c-39.021603 0 -70.65486 -4.66243 -70.65486 -10.413818z" fill-rule="evenodd"></path><path fill="#000000" d="m57.172974 222.05583l-0.78125 1.53125q-1.390625 -1.046875 -2.734375 -1.046875q-2.140625 0 -3.375 1.515625q-1.234375 1.5 -1.234375 3.96875q0 2.359375 1.203125 3.796875q1.21875 1.4375 3.3125 1.4375q1.484375 0 2.40625 -0.890625l0 -3.1875l-1.890625 0l0 -1.578125l3.734375 0l0 5.921875q-0.734375 0.640625 -2.0625 1.03125q-1.328125 0.375 -2.578125 0.375q-2.8125 0 -4.4375 -1.90625q-1.625 -1.90625 -1.625 -5.078125q0 -3.15625 1.78125 -5.109375q1.78125 -1.96875 4.8125 -1.96875q2.125 0 3.46875 1.1875zm10.913528 12.640625l-0.9375 -2.859375l-5.046875 0l-1.015625 2.859375l-2.078125 0l5.53125 -13.78125l0.484375 0l5.125 13.78125l-2.0625 0zm-3.390625 -10.21875l-2.109375 5.984375l4.03125 0l-1.921875 -5.984375zm8.535522 4.984375l0 5.234375l-1.859375 0l0 -13.59375q2.109375 -0.09375 2.546875 -0.09375q5.921875 0 5.921875 3.96875q0 4.578125 -5.234375 4.578125q-0.3125 0 -1.375 -0.09375zm0 -6.6875l0 5.015625q1.171875 0.09375 1.234375 0.09375q3.453125 0 3.453125 -2.71875q0 -2.484375 -3.671875 -2.484375q-0.375 0 -1.015625 0.09375zm18.778046 11.921875l-1.609375 -8.734375l-2.96875 8.921875l-0.46875 0l-3.046875 -8.921875l-1.578125 8.734375l-1.765625 0l2.546875 -13.59375l0.84375 0l3.234375 9.921875l2.984375 -9.921875l0.828125 0l2.765625 13.59375l-1.765625 0zm3.3298492 0l0 -13.59375l1.859375 0l0 13.59375l-1.859375 0zm13.645538 0.1875l-7.015625 -9.9375l0 9.75l-1.765625 0l0 -13.59375l0.75 0l6.828125 9.40625l0 -9.40625l1.765625 0l0 13.78125l-0.5625 0zm5.8592377 -0.1875l-2.734375 0l0 -13.59375q2.625 -0.09375 3.34375 -0.09375q2.859375 0 4.515625 1.734375q1.65625 1.734375 1.65625 4.609375q0 7.34375 -6.78125 7.34375zm-0.875 -11.921875l0 10.15625q0.625 0.09375 1.53125 0.09375q1.953125 0 3.0625 -1.453125q1.125 -1.46875 1.125 -4.0625q0 -4.828125 -4.34375 -4.828125q-0.25 0 -1.375 0.09375zm11.441528 0l0 3.78125l4.484375 0l0 1.578125l-4.484375 0l0 4.890625l6.15625 0l0 1.671875l-8.015625 0l0 -13.59375l8.125 0l0 1.671875l-6.265625 0zm15.680618 11.921875l-3.625 -5.828125q-0.625 0 -1.96875 -0.09375l0 5.921875l-1.859375 0l0 -13.59375q0.109375 0 1.4375 -0.0625q1.34375 -0.078125 1.953125 -0.078125q4.90625 0 4.90625 3.90625q0 1.28125 -0.796875 2.3125q-0.78125 1.015625 -1.875 1.265625l3.953125 6.25l-2.125 0zm-5.59375 -11.921875l0 4.421875q0.671875 0.09375 1.296875 0.09375q1.671875 0 2.421875 -0.53125q0.765625 -0.546875 0.765625 -1.9375q0 -1.140625 -0.8125 -1.640625q-0.8125 -0.5 -2.578125 -0.5q-0.28125 0 -1.09375 0.09375z" fill-rule="nonzero"></path><path fill="#cfe2f3" d="m454.27823 218.72441l38.90445 -61.52231l155.61786 0l-38.90448 61.52231z" fill-rule="evenodd"></path><path stroke="#000000" stroke-width="1.0" stroke-linejoin="round" stroke-linecap="butt" d="m454.27823 218.72441l38.90445 -61.52231l155.61786 0l-38.90448 61.52231z" fill-rule="evenodd"></path><path fill="#000000" d="m503.0733 186.602l0.953125 -1.40625q1.546875 1.03125 2.84375 1.03125q1.1875 0 1.875 -0.421875q0.703125 -0.40625 0.703125 -1.015625q0 -1.21875 -1.75 -1.21875q-0.296875 0 -1.078125 0.15625q-0.765625 0.140625 -1.203125 0.140625q-2.125 0 -2.125 -1.59375q0 -0.484375 0.5 -0.875q0.5 -0.40625 1.234375 -0.59375q-2.09375 -0.96875 -2.09375 -3.40625q0 -1.5625 1.078125 -2.59375q1.078125 -1.046875 2.6875 -1.046875q1.453125 0 2.28125 0.609375l0.890625 -1.0625l1.140625 1.09375l-1.046875 0.796875q0.671875 0.875 0.671875 2.296875q0 1.5 -0.9375 2.53125q-0.9375 1.015625 -2.453125 1.15625l-1.46875 0.15625q-0.25 0.015625 -0.6875 0.1875q-0.4375 0.171875 -0.4375 0.453125q0 0.390625 0.90625 0.390625q0.40625 0 1.25 -0.140625q0.84375 -0.15625 1.25 -0.15625q1.46875 0 2.28125 0.703125q0.828125 0.703125 0.828125 1.9375q0 1.375 -1.234375 2.21875q-1.234375 0.84375 -3.109375 0.84375q-0.96875 0 -2.03125 -0.34375q-1.0625 -0.34375 -1.71875 -0.828125zm3.734375 -11.421875q-0.90625 0 -1.5 0.65625q-0.578125 0.640625 -0.578125 1.578125q0 1.03125 0.5625 1.71875q0.5625 0.671875 1.515625 0.671875q0.9375 0 1.46875 -0.65625q0.53125 -0.671875 0.53125 -1.734375q0 -0.9375 -0.578125 -1.578125q-0.5625 -0.65625 -1.421875 -0.65625zm11.598938 7.5625q-1.046875 1.328125 -3.234375 1.328125q-1.171875 0 -2.03125 -0.84375q-0.84375 -0.859375 -0.84375 -2.125q0 -1.5 1.3125 -2.546875q1.328125 -1.046875 3.375 -1.046875q0.5625 0 1.265625 0.25q0 -2.421875 -2.15625 -2.421875q-1.65625 0 -2.546875 0.890625l-0.734375 -1.46875q0.5 -0.40625 1.375 -0.703125q0.890625 -0.296875 1.703125 -0.296875q2.15625 0 3.140625 0.984375q0.984375 0.984375 0.984375 3.125l0 3.5625q0 1.3125 0.765625 1.75l0 0.875q-1.0625 0 -1.609375 -0.296875q-0.53125 -0.3125 -0.765625 -1.015625zm-0.15625 -3.734375q-0.84375 -0.1875 -1.171875 -0.1875q-1.34375 0 -2.1875 0.6875q-0.84375 0.6875 -0.84375 1.625q0 1.546875 1.828125 1.546875q1.34375 0 2.375 -1.28125l0 -2.390625zm6.114319 4.328125l0 4.4375l-1.765625 0l0 -13.828125l1.765625 0l0 0.8125q1.0 -1.0 2.421875 -1.0q2.109375 0 3.28125 1.328125q1.1875 1.3125 1.1875 3.859375q0 2.25 -1.1875 3.6875q-1.1875 1.4375 -3.4375 1.4375q-0.625 0 -1.34375 -0.21875q-0.71875 -0.234375 -0.921875 -0.515625zm0 -7.25l0 5.796875q0.171875 0.25 0.703125 0.484375q0.546875 0.21875 1.046875 0.21875q3.28125 0 3.28125 -3.71875q0 -1.875 -0.78125 -2.75q-0.765625 -0.875 -2.484375 -0.875q-0.375 0 -0.921875 0.265625q-0.53125 0.25 -0.84375 0.578125zm20.128296 7.796875l0 -6.296875q0 -2.34375 -2.03125 -2.34375q-0.640625 0 -1.203125 0.40625q-0.546875 0.390625 -0.75 0.890625l0 7.34375l-1.765625 0l0 -7.0625q0 -0.734375 -0.546875 -1.15625q-0.546875 -0.421875 -1.46875 -0.421875q-0.515625 0 -1.125 0.40625q-0.59375 0.40625 -0.84375 0.90625l0 7.328125l-1.765625 0l0 -9.9375l1.15625 0l0.578125 1.15625q1.03125 -1.34375 2.546875 -1.34375q2.140625 0 3.0 1.328125q0.296875 -0.5625 1.09375 -0.9375q0.8125 -0.390625 1.671875 -0.390625q1.53125 0 2.375 0.921875q0.84375 0.90625 0.84375 2.5625l0 6.640625l-1.765625 0zm5.81427 -13.6875q0.453125 0 0.765625 0.328125q0.328125 0.3125 0.328125 0.75q0 0.453125 -0.328125 0.78125q-0.3125 0.3125 -0.765625 0.3125q-0.453125 0 -0.78125 -0.3125q-0.3125 -0.328125 -0.3125 -0.78125q0 -0.453125 0.3125 -0.765625q0.3125 -0.3125 0.78125 -0.3125zm-0.96875 13.6875l0 -8.453125l-1.359375 0l0 -1.484375l3.125 0l0 9.9375l-1.765625 0zm10.569946 0l0 -5.78125q0 -1.578125 -0.484375 -2.21875q-0.46875 -0.640625 -1.59375 -0.640625q-0.59375 0 -1.25 0.375q-0.65625 0.359375 -1.015625 0.875l0 7.390625l-1.765625 0l0 -9.9375l1.203125 0l0.5625 1.28125q0.875 -1.46875 2.84375 -1.46875q3.265625 0 3.265625 3.96875l0 6.15625l-1.765625 0zm10.3810425 -0.015625l0 -0.734375q-0.90625 0.921875 -2.671875 0.921875q-1.859375 0 -3.015625 -1.328125q-1.15625 -1.34375 -1.15625 -3.5625q0 -2.234375 1.328125 -3.8125q1.34375 -1.59375 3.1875 -1.59375q1.53125 0 2.328125 0.734375l0 -4.625l1.765625 0l0 14.0l-1.765625 0zm0 -7.625q-0.65625 -1.0 -1.828125 -1.0q-1.40625 0 -2.296875 1.0625q-0.875 1.0625 -0.875 2.6875q0 3.59375 3.265625 3.59375q0.421875 0 1.0 -0.265625q0.59375 -0.265625 0.734375 -0.5625l0 -5.515625zm12.472046 2.84375l-7.171875 0q0 1.75 0.96875 2.6875q0.84375 0.8125 2.15625 0.8125q1.515625 0 2.53125 -0.890625l0.734375 1.28125q-0.40625 0.40625 -1.25 0.703125q-1.046875 0.390625 -2.359375 0.390625q-1.859375 0 -3.171875 -1.265625q-1.453125 -1.40625 -1.453125 -3.78125q0 -2.453125 1.484375 -3.9375q1.34375 -1.328125 3.171875 -1.328125q2.125 0 3.328125 1.203125q1.171875 1.140625 1.171875 3.046875q0 0.59375 -0.140625 1.078125zm-4.28125 -3.84375q-1.171875 0 -1.96875 0.765625q-0.765625 0.71875 -0.875 1.796875l5.5 0q0 -1.0625 -0.65625 -1.78125q-0.734375 -0.78125 -2.0 -0.78125zm11.487793 0.40625q-0.578125 -0.40625 -1.15625 -0.40625q-0.9375 0 -1.640625 0.875q-0.703125 0.859375 -0.703125 2.0625l0 5.703125l-1.765625 0l0 -9.9375l1.765625 0l0 1.59375q0.96875 -1.78125 2.859375 -1.78125q0.484375 0 1.375 0.171875l-0.734375 1.71875z" fill-rule="nonzero"></path><path fill="#000000" d="m505.1983 205.33638l0 4.4375l-1.765625 0l0 -13.828125l1.765625 0l0 0.8125q1.0 -1.0 2.421875 -1.0q2.109375 0 3.28125 1.328125q1.1875 1.3125 1.1875 3.859375q0 2.25 -1.1875 3.6875q-1.1875 1.4375 -3.4375 1.4375q-0.625 0 -1.34375 -0.21875q-0.71875 -0.234375 -0.921875 -0.515625zm0 -7.25l0 5.796875q0.171875 0.25 0.703125 0.484375q0.546875 0.21875 1.046875 0.21875q3.28125 0 3.28125 -3.71875q0 -1.875 -0.78125 -2.75q-0.765625 -0.875 -2.484375 -0.875q-0.375 0 -0.921875 0.265625q-0.53125 0.25 -0.84375 0.578125zm7.987671 2.8125q0 -2.3125 1.234375 -3.71875q1.234375 -1.421875 3.265625 -1.421875q2.125 0 3.296875 1.359375q1.1875 1.359375 1.1875 3.78125q0 2.390625 -1.203125 3.78125q-1.203125 1.390625 -3.28125 1.390625q-2.125 0 -3.3125 -1.390625q-1.1875 -1.40625 -1.1875 -3.78125zm1.84375 0q0 3.734375 2.65625 3.734375q1.234375 0 1.921875 -1.0q0.703125 -1.0 0.703125 -2.734375q0 -3.703125 -2.625 -3.703125q-1.21875 0 -1.9375 0.984375q-0.71875 0.984375 -0.71875 2.71875zm10.573853 4.4375l0 4.4375l-1.765625 0l0 -13.828125l1.765625 0l0 0.8125q1.0 -1.0 2.421875 -1.0q2.109375 0 3.28125 1.328125q1.1875 1.3125 1.1875 3.859375q0 2.25 -1.1875 3.6875q-1.1875 1.4375 -3.4375 1.4375q-0.625 0 -1.34375 -0.21875q-0.71875 -0.234375 -0.921875 -0.515625zm0 -7.25l0 5.796875q0.171875 0.25 0.703125 0.484375q0.546875 0.21875 1.046875 0.21875q3.28125 0 3.28125 -3.71875q0 -1.875 -0.78125 -2.75q-0.765625 -0.875 -2.484375 -0.875q-0.375 0 -0.921875 0.265625q-0.53125 0.25 -0.84375 0.578125zm10.300171 -2.140625l0 6.34375q0 2.296875 2.0 2.296875q0.875 0 1.59375 -0.5q0.71875 -0.5 0.953125 -1.15625l0 -6.984375l1.765625 0l0 9.9375l-1.765625 0l0 -1.375q-0.296875 0.59375 -1.203125 1.078125q-0.890625 0.484375 -1.734375 0.484375q-1.640625 0 -2.515625 -0.9375q-0.859375 -0.9375 -0.859375 -2.671875l0 -6.515625l1.765625 0zm8.6622925 7.125l0 -11.203125l1.765625 0l0 10.90625q0 0.796875 0.453125 1.265625q0.46875 0.453125 1.203125 0.453125l0 1.578125q-3.421875 0 -3.421875 -3.0zm10.970886 1.671875q-1.046875 1.328125 -3.234375 1.328125q-1.171875 0 -2.03125 -0.84375q-0.84375 -0.859375 -0.84375 -2.125q0 -1.5 1.3125 -2.546875q1.328125 -1.046875 3.375 -1.046875q0.5625 0 1.265625 0.25q0 -2.421875 -2.15625 -2.421875q-1.65625 0 -2.546875 0.890625l-0.734375 -1.46875q0.5 -0.40625 1.375 -0.703125q0.890625 -0.296875 1.703125 -0.296875q2.15625 0 3.140625 0.984375q0.984375 0.984375 0.984375 3.125l0 3.5625q0 1.3125 0.765625 1.75l0 0.875q-1.0625 0 -1.609375 -0.296875q-0.53125 -0.3125 -0.765625 -1.015625zm-0.15625 -3.734375q-0.84375 -0.1875 -1.171875 -0.1875q-1.34375 0 -2.1875 0.6875q-0.84375 0.6875 -0.84375 1.625q0 1.546875 1.828125 1.546875q1.34375 0 2.375 -1.28125l0 -2.390625zm4.989319 -3.671875l-1.15625 0l0 -1.390625l1.15625 0l0 -2.078125l1.75 -0.671875l0 2.75l2.734375 0l0 1.390625l-2.734375 0l0 4.9375q0 1.25 0.421875 1.78125q0.421875 0.53125 1.359375 0.53125q0.6875 0 1.40625 -0.34375l0.265625 1.546875q-1.09375 0.28125 -2.40625 0.28125q-1.1875 0 -2.0 -0.875q-0.796875 -0.875 -0.796875 -2.21875l0 -5.640625zm8.584412 -5.140625q0.453125 0 0.765625 0.328125q0.328125 0.3125 0.328125 0.75q0 0.453125 -0.328125 0.78125q-0.3125 0.3125 -0.765625 0.3125q-0.453125 0 -0.78125 -0.3125q-0.3125 -0.328125 -0.3125 -0.78125q0 -0.453125 0.3125 -0.765625q0.3125 -0.3125 0.78125 -0.3125zm-0.96875 13.6875l0 -8.453125l-1.359375 0l0 -1.484375l3.125 0l0 9.9375l-1.765625 0zm3.8199463 -4.984375q0 -2.3125 1.234375 -3.71875q1.234375 -1.421875 3.265625 -1.421875q2.125 0 3.296875 1.359375q1.1875 1.359375 1.1875 3.78125q0 2.390625 -1.203125 3.78125q-1.203125 1.390625 -3.28125 1.390625q-2.125 0 -3.3125 -1.390625q-1.1875 -1.40625 -1.1875 -3.78125zm1.84375 0q0 3.734375 2.65625 3.734375q1.234375 0 1.921875 -1.0q0.703125 -1.0 0.703125 -2.734375q0 -3.703125 -2.625 -3.703125q-1.21875 0 -1.9375 0.984375q-0.71875 0.984375 -0.71875 2.71875zm14.917603 4.984375l0 -5.78125q0 -1.578125 -0.484375 -2.21875q-0.46875 -0.640625 -1.59375 -0.640625q-0.59375 0 -1.25 0.375q-0.65625 0.359375 -1.015625 0.875l0 7.390625l-1.765625 0l0 -9.9375l1.203125 0l0.5625 1.28125q0.875 -1.46875 2.84375 -1.46875q3.265625 0 3.265625 3.96875l0 6.15625l-1.765625 0z" fill-rule="nonzero"></path><path fill="#cfe2f3" d="m727.9055 218.90353l38.90448 -61.52231l155.6178 0l-38.90442 61.52231z" fill-rule="evenodd"></path><path stroke="#000000" stroke-width="1.0" stroke-linejoin="round" stroke-linecap="butt" d="m727.9055 218.90353l38.90448 -61.52231l155.6178 0l-38.90442 61.52231z" fill-rule="evenodd"></path><path fill="#000000" d="m776.7006 186.78113l0.953125 -1.40625q1.546875 1.03125 2.84375 1.03125q1.1875 0 1.875 -0.421875q0.703125 -0.40625 0.703125 -1.015625q0 -1.21875 -1.75 -1.21875q-0.296875 0 -1.078125 0.15625q-0.765625 0.140625 -1.203125 0.140625q-2.125 0 -2.125 -1.59375q0 -0.484375 0.5 -0.875q0.5 -0.40625 1.234375 -0.59375q-2.09375 -0.96875 -2.09375 -3.40625q0 -1.5625 1.078125 -2.59375q1.078125 -1.046875 2.6875 -1.046875q1.453125 0 2.28125 0.609375l0.890625 -1.0625l1.140625 1.09375l-1.046875 0.796875q0.671875 0.875 0.671875 2.296875q0 1.5 -0.9375 2.53125q-0.9375 1.015625 -2.453125 1.15625l-1.46875 0.15625q-0.25 0.015625 -0.6875 0.1875q-0.4375 0.171875 -0.4375 0.453125q0 0.390625 0.90625 0.390625q0.40625 0 1.25 -0.140625q0.84375 -0.15625 1.25 -0.15625q1.46875 0 2.28125 0.703125q0.828125 0.703125 0.828125 1.9375q0 1.375 -1.234375 2.21875q-1.234375 0.84375 -3.109375 0.84375q-0.96875 0 -2.03125 -0.34375q-1.0625 -0.34375 -1.71875 -0.828125zm3.734375 -11.421875q-0.90625 0 -1.5 0.65625q-0.578125 0.640625 -0.578125 1.578125q0 1.03125 0.5625 1.71875q0.5625 0.671875 1.515625 0.671875q0.9375 0 1.46875 -0.65625q0.53125 -0.671875 0.53125 -1.734375q0 -0.9375 -0.578125 -1.578125q-0.5625 -0.65625 -1.421875 -0.65625zm11.598938 7.5625q-1.046875 1.328125 -3.234375 1.328125q-1.171875 0 -2.03125 -0.84375q-0.84375 -0.859375 -0.84375 -2.125q0 -1.5 1.3125 -2.546875q1.328125 -1.046875 3.375 -1.046875q0.5625 0 1.265625 0.25q0 -2.421875 -2.15625 -2.421875q-1.65625 0 -2.546875 0.890625l-0.734375 -1.46875q0.5 -0.40625 1.375 -0.703125q0.890625 -0.296875 1.703125 -0.296875q2.15625 0 3.140625 0.984375q0.984375 0.984375 0.984375 3.125l0 3.5625q0 1.3125 0.765625 1.75l0 0.875q-1.0625 0 -1.609375 -0.296875q-0.53125 -0.3125 -0.765625 -1.015625zm-0.15625 -3.734375q-0.84375 -0.1875 -1.171875 -0.1875q-1.34375 0 -2.1875 0.6875q-0.84375 0.6875 -0.84375 1.625q0 1.546875 1.828125 1.546875q1.34375 0 2.375 -1.28125l0 -2.390625zm6.114319 4.328125l0 4.4375l-1.765625 0l0 -13.828125l1.765625 0l0 0.8125q1.0 -1.0 2.421875 -1.0q2.109375 0 3.28125 1.328125q1.1875 1.3125 1.1875 3.859375q0 2.25 -1.1875 3.6875q-1.1875 1.4375 -3.4375 1.4375q-0.625 0 -1.34375 -0.21875q-0.71875 -0.234375 -0.921875 -0.515625zm0 -7.25l0 5.796875q0.171875 0.25 0.703125 0.484375q0.546875 0.21875 1.046875 0.21875q3.28125 0 3.28125 -3.71875q0 -1.875 -0.78125 -2.75q-0.765625 -0.875 -2.484375 -0.875q-0.375 0 -0.921875 0.265625q-0.53125 0.25 -0.84375 0.578125zm20.128296 7.796875l0 -6.296875q0 -2.34375 -2.03125 -2.34375q-0.640625 0 -1.203125 0.40625q-0.546875 0.390625 -0.75 0.890625l0 7.34375l-1.765625 0l0 -7.0625q0 -0.734375 -0.546875 -1.15625q-0.546875 -0.421875 -1.46875 -0.421875q-0.515625 0 -1.125 0.40625q-0.59375 0.40625 -0.84375 0.90625l0 7.328125l-1.765625 0l0 -9.9375l1.15625 0l0.578125 1.15625q1.03125 -1.34375 2.546875 -1.34375q2.140625 0 3.0 1.328125q0.296875 -0.5625 1.09375 -0.9375q0.8125 -0.390625 1.671875 -0.390625q1.53125 0 2.375 0.921875q0.84375 0.90625 0.84375 2.5625l0 6.640625l-1.765625 0zm5.81427 -13.6875q0.453125 0 0.765625 0.328125q0.328125 0.3125 0.328125 0.75q0 0.453125 -0.328125 0.78125q-0.3125 0.3125 -0.765625 0.3125q-0.453125 0 -0.78125 -0.3125q-0.3125 -0.328125 -0.3125 -0.78125q0 -0.453125 0.3125 -0.765625q0.3125 -0.3125 0.78125 -0.3125zm-0.96875 13.6875l0 -8.453125l-1.359375 0l0 -1.484375l3.125 0l0 9.9375l-1.765625 0zm10.569946 0l0 -5.78125q0 -1.578125 -0.484375 -2.21875q-0.46875 -0.640625 -1.59375 -0.640625q-0.59375 0 -1.25 0.375q-0.65625 0.359375 -1.015625 0.875l0 7.390625l-1.765625 0l0 -9.9375l1.203125 0l0.5625 1.28125q0.875 -1.46875 2.84375 -1.46875q3.265625 0 3.265625 3.96875l0 6.15625l-1.765625 0zm10.3810425 -0.015625l0 -0.734375q-0.90625 0.921875 -2.671875 0.921875q-1.859375 0 -3.015625 -1.328125q-1.15625 -1.34375 -1.15625 -3.5625q0 -2.234375 1.328125 -3.8125q1.34375 -1.59375 3.1875 -1.59375q1.53125 0 2.328125 0.734375l0 -4.625l1.765625 0l0 14.0l-1.765625 0zm0 -7.625q-0.65625 -1.0 -1.828125 -1.0q-1.40625 0 -2.296875 1.0625q-0.875 1.0625 -0.875 2.6875q0 3.59375 3.265625 3.59375q0.421875 0 1.0 -0.265625q0.59375 -0.265625 0.734375 -0.5625l0 -5.515625zm12.472046 2.84375l-7.171875 0q0 1.75 0.96875 2.6875q0.84375 0.8125 2.15625 0.8125q1.515625 0 2.53125 -0.890625l0.734375 1.28125q-0.40625 0.40625 -1.25 0.703125q-1.046875 0.390625 -2.359375 0.390625q-1.859375 0 -3.171875 -1.265625q-1.453125 -1.40625 -1.453125 -3.78125q0 -2.453125 1.484375 -3.9375q1.34375 -1.328125 3.171875 -1.328125q2.125 0 3.328125 1.203125q1.171875 1.140625 1.171875 3.046875q0 0.59375 -0.140625 1.078125zm-4.28125 -3.84375q-1.171875 0 -1.96875 0.765625q-0.765625 0.71875 -0.875 1.796875l5.5 0q0 -1.0625 -0.65625 -1.78125q-0.734375 -0.78125 -2.0 -0.78125zm11.487793 0.40625q-0.578125 -0.40625 -1.15625 -0.40625q-0.9375 0 -1.640625 0.875q-0.703125 0.859375 -0.703125 2.0625l0 5.703125l-1.765625 0l0 -9.9375l1.765625 0l0 1.59375q0.96875 -1.78125 2.859375 -1.78125q0.484375 0 1.375 0.171875l-0.734375 1.71875z" fill-rule="nonzero"></path><path fill="#000000" d="m784.56 196.93738l-0.875 1.234375q-0.265625 -0.265625 -0.953125 -0.5q-0.671875 -0.25 -1.34375 -0.25q-1.4375 0 -2.28125 1.015625q-0.84375 1.0 -0.84375 2.75q0 1.75 0.859375 2.671875q0.875 0.90625 2.40625 0.90625q1.1875 0 2.390625 -0.921875l0.6875 1.484375q-1.40625 0.921875 -3.515625 0.921875q-2.03125 0 -3.359375 -1.359375q-1.3125 -1.375 -1.3125 -3.703125q0 -2.375 1.375 -3.8125q1.375 -1.4375 3.765625 -1.4375q0.765625 0 1.671875 0.328125q0.90625 0.328125 1.328125 0.671875zm1.0963745 4.140625q0 -2.3125 1.234375 -3.71875q1.234375 -1.421875 3.265625 -1.421875q2.125 0 3.296875 1.359375q1.1875 1.359375 1.1875 3.78125q0 2.390625 -1.203125 3.78125q-1.203125 1.390625 -3.28125 1.390625q-2.125 0 -3.3125 -1.390625q-1.1875 -1.40625 -1.1875 -3.78125zm1.84375 0q0 3.734375 2.65625 3.734375q1.234375 0 1.921875 -1.0q0.703125 -1.0 0.703125 -2.734375q0 -3.703125 -2.625 -3.703125q-1.21875 0 -1.9375 0.984375q-0.71875 0.984375 -0.71875 2.71875zm8.198853 4.984375l0 -0.375l4.265625 -6.515625q1.328125 -2.046875 1.328125 -3.484375q0 -1.875 -2.125 -1.875q-0.75 0 -1.40625 0.390625q-0.65625 0.390625 -0.953125 1.0l-1.203125 -0.984375q0.3125 -0.90625 1.234375 -1.4375q0.921875 -0.546875 2.234375 -0.546875q1.953125 0 3.0625 0.90625q1.109375 0.890625 1.109375 2.546875q0 1.53125 -1.46875 3.859375l-3.046875 4.84375l5.3125 0l0 1.671875l-8.34375 0z" fill-rule="nonzero"></path><path fill="#000000" fill-opacity="0.0" d="m383.40604 138.31758c22.201935 0 33.11252 12.409454 44.40387 24.818909c11.291321 12.409439 22.96341 24.818893 45.92685 24.818893" fill-rule="evenodd"></path><path stroke="#000000" stroke-width="1.0" stroke-linejoin="round" stroke-linecap="butt" d="m383.40604 138.31758c22.201935 0 33.11252 12.409454 44.40387 24.818909c11.291321 12.409439 22.96341 24.818893 45.92685 24.818893" fill-rule="evenodd"></path><path fill="#000000" fill-opacity="0.0" d="m383.40485 222.56955c22.201935 0 33.11255 -8.653534 44.40387 -17.307083c11.291351 -8.653549 22.96344 -17.307083 45.92685 -17.307083" fill-rule="evenodd"></path><path stroke="#000000" stroke-width="1.0" stroke-linejoin="round" stroke-linecap="butt" d="m383.40485 222.56955c22.201935 0 33.11255 -8.653534 44.40387 -17.307083c11.291351 -8.653549 22.96344 -17.307083 45.92685 -17.307083" fill-rule="evenodd"></path><path fill="#000000" fill-opacity="0.0" d="m379.2197 313.22308c23.248535 0 34.6821 -31.314941 46.49707 -62.629913c11.814941 -31.314957 24.011292 -62.629913 48.022614 -62.629913" fill-rule="evenodd"></path><path stroke="#000000" stroke-width="1.0" stroke-linejoin="round" stroke-linecap="butt" d="m379.2197 313.22308c23.248535 0 34.6821 -31.314941 46.49707 -62.629913c11.814941 -31.314957 24.011292 -62.629913 48.022614 -62.629913" fill-rule="evenodd"></path><path fill="#000000" fill-opacity="0.0" d="m383.40604 54.065617c125.0069 0 204.5217 33.519688 250.01382 67.03937c45.492126 33.519676 56.96161 67.039375 113.92316 67.039375" fill-rule="evenodd"></path><path stroke="#000000" stroke-width="1.0" stroke-linejoin="round" stroke-linecap="butt" d="m383.40604 54.065617c125.0069 0 204.5217 33.519688 250.01382 67.03937c45.492126 33.519676 56.96161 67.039375 113.92316 67.039375" fill-rule="evenodd"></path><path fill="#000000" fill-opacity="0.0" d="m629.34827 187.96326c29.502197 0 44.25238 0.04724121 59.004333 0.09448242c14.752014 0.04724121 29.505737 0.09449768 59.011414 0.09449768" fill-rule="evenodd"></path><path stroke="#000000" stroke-width="1.0" stroke-linejoin="round" stroke-linecap="butt" d="m629.34827 187.96326c29.502197 0 44.25238 0.04724121 59.004333 0.09448242c14.752014 0.04724121 29.505737 0.09449768 59.011414 0.09449768" fill-rule="evenodd"></path><path fill="#000000" fill-opacity="0.0" d="m379.2197 313.22308c117.4874 0 188.95908 -31.2677 234.97482 -62.535416c46.015747 -31.267715 66.57556 -62.53543 133.15112 -62.53543" fill-rule="evenodd"></path><path stroke="#000000" stroke-width="1.0" stroke-linejoin="round" stroke-linecap="butt" d="m379.2197 313.22308c117.4874 0 188.95908 -31.2677 234.97482 -62.535416c46.015747 -31.267715 66.57556 -62.53543 133.15112 -62.53543" fill-rule="evenodd"></path><path fill="#000000" fill-opacity="0.0" d="m165.3412 54.065617c14.16214 0 19.001434 0.01574707 28.324265 0.031497955c9.322845 0.01574707 23.129211 0.03149414 46.258423 0.03149414" fill-rule="evenodd"></path><path stroke="#000000" stroke-width="1.0" stroke-linejoin="round" stroke-linecap="butt" d="m165.3412 54.065617c14.16214 0 19.001434 0.01574707 28.324265 0.031497955c9.322845 0.01574707 23.129211 0.03149414 46.258423 0.03149414" fill-rule="evenodd"></path><path fill="#000000" fill-opacity="0.0" d="m165.3412 138.31758c14.16214 0 19.001434 0.01574707 28.324265 0.03149414c9.322845 0.01574707 23.129211 0.0315094 46.258423 0.0315094" fill-rule="evenodd"></path><path stroke="#000000" stroke-width="1.0" stroke-linejoin="round" stroke-linecap="butt" d="m165.3412 138.31758c14.16214 0 19.001434 0.01574707 28.324265 0.03149414c9.322845 0.01574707 23.129211 0.0315094 46.258423 0.0315094" fill-rule="evenodd"></path><path fill="#000000" fill-opacity="0.0" d="m165.3412 222.56955c14.16214 0 19.001434 0.01574707 28.324265 0.03149414c9.322845 0.01574707 23.129211 0.0315094 46.258423 0.0315094" fill-rule="evenodd"></path><path stroke="#000000" stroke-width="1.0" stroke-linejoin="round" stroke-linecap="butt" d="m165.3412 222.56955c14.16214 0 19.001434 0.01574707 28.324265 0.03149414c9.322845 0.01574707 23.129211 0.0315094 46.258423 0.0315094" fill-rule="evenodd"></path></g></svg>

