<?xml version="1.0" standalone="yes"?>

<svg version="1.1" viewBox="0.0 0.0 669.0524934383202 372.9763779527559" fill="none" stroke="none" stroke-linecap="square" stroke-miterlimit="10" xmlns="http://www.w3.org/2000/svg" xmlns:xlink="http://www.w3.org/1999/xlink"><clipPath id="p.0"><path d="m0 0l669.0525 0l0 372.97638l-669.0525 0l0 -372.97638z" clip-rule="nonzero"></path></clipPath><g clip-path="url(#p.0)"><path fill="#000000" fill-opacity="0.0" d="m0 0l669.0525 0l0 372.97638l-669.0525 0z" fill-rule="evenodd"></path><path fill="#cfe2f3" d="m18.469816 80.296585l0 0c0 -22.030506 26.101446 -39.88976 58.29921 -39.88976l0 0c32.19777 0 58.29921 17.859253 58.29921 39.88976l0 0c0 22.03051 -26.10144 39.889763 -58.29921 39.889763l0 0c-32.197765 0 -58.29921 -17.859253 -58.29921 -39.889763z" fill-rule="evenodd"></path><path stroke="#000000" stroke-width="1.0" stroke-linejoin="round" stroke-linecap="butt" d="m18.469816 80.296585l0 0c0 -22.030506 26.101446 -39.88976 58.29921 -39.88976l0 0c32.19777 0 58.29921 17.859253 58.29921 39.88976l0 0c0 22.03051 -26.10144 39.889763 -58.29921 39.889763l0 0c-32.197765 0 -58.29921 -17.859253 -58.29921 -39.889763z" fill-rule="evenodd"></path><path fill="#000000" d="m46.192043 86.62283l0.609375 -1.671875q1.484375 0.96875 2.375 0.96875q1.640625 0 1.640625 -1.375q0 -0.984375 -1.578125 -1.6875q-1.21875 -0.5625 -1.640625 -0.84375q-0.421875 -0.296875 -0.734375 -0.65625q-0.3125 -0.359375 -0.46875 -0.765625q-0.140625 -0.421875 -0.140625 -0.90625q0 -1.21875 0.890625 -1.90625q0.890625 -0.6875 2.328125 -0.6875q1.078125 0 2.734375 0.6875l-0.5 1.640625q-1.046875 -0.84375 -2.109375 -0.84375q-0.625 0 -1.0625 0.296875q-0.421875 0.296875 -0.421875 0.75q0 0.953125 1.078125 1.453125l1.265625 0.578125q1.15625 0.53125 1.6875 1.203125q0.53125 0.671875 0.53125 1.703125q0 1.328125 -0.9375 2.09375q-0.9375 0.75 -2.609375 0.75q-1.5625 0 -2.9375 -0.78125zm17.379898 0.78125l-0.46875 0l-2.90625 -6.765625l-2.90625 6.765625l-0.46875 0l-3.546875 -10.15625l1.875 0l2.125 6.53125l2.65625 -6.53125l0.453125 0l2.734375 6.53125l2.2812462 -6.53125l1.734375 0l-3.5624962 10.15625zm13.07037 -4.984375l-7.171875 0q0 1.75 0.96875 2.6875q0.84375 0.8125 2.15625 0.8125q1.515625 0 2.53125 -0.890625l0.734375 1.28125q-0.40625 0.40625 -1.25 0.703125q-1.046875 0.390625 -2.359375 0.390625q-1.859375 0 -3.171875 -1.265625q-1.453125 -1.40625 -1.453125 -3.78125q0 -2.453125 1.484375 -3.9375q1.34375 -1.328125 3.171875 -1.328125q2.125 0 3.328125 1.203125q1.171875 1.140625 1.171875 3.046875q0 0.59375 -0.140625 1.078125zm-4.28125 -3.84375q-1.171875 0 -1.96875 0.765625q-0.765625 0.71875 -0.875 1.796875l5.5 0q0 -1.0625 -0.65625 -1.78125q-0.734375 -0.78125 -2.0 -0.78125zm12.378433 8.625l0 -0.734375q-0.90625 0.921875 -2.671875 0.921875q-1.859375 0 -3.015625 -1.328125q-1.15625 -1.34375 -1.15625 -3.5625q0 -2.234375 1.328125 -3.8125q1.34375 -1.59375 3.1875 -1.59375q1.53125 0 2.328125 0.734375l0 -4.625l1.765625 0l0 14.0l-1.765625 0zm0 -7.625q-0.65625 -1.0 -1.828125 -1.0q-1.40625 0 -2.296875 1.0625q-0.875 1.0625 -0.875 2.6875q0 3.59375 3.265625 3.59375q0.421875 0 1.0 -0.265625q0.59375 -0.265625 0.734375 -0.5625l0 -5.515625zm12.472061 2.84375l-7.171875 0q0 1.75 0.96875 2.6875q0.84375 0.8125 2.15625 0.8125q1.515625 0 2.53125 -0.890625l0.734375 1.28125q-0.40625 0.40625 -1.25 0.703125q-1.046875 0.390625 -2.359375 0.390625q-1.859375 0 -3.171875 -1.265625q-1.453125 -1.40625 -1.453125 -3.78125q0 -2.453125 1.484375 -3.9375q1.34375 -1.328125 3.171875 -1.328125q2.125 0 3.328125 1.203125q1.171875 1.140625 1.171875 3.046875q0 0.59375 -0.140625 1.078125zm-4.28125 -3.84375q-1.171875 0 -1.96875 0.765625q-0.765625 0.71875 -0.875 1.796875l5.5 0q0 -1.0625 -0.65625 -1.78125q-0.734375 -0.78125 -2.0 -0.78125zm12.190933 8.640625l0 -5.78125q0 -1.578125 -0.484375 -2.21875q-0.46875 -0.640625 -1.59375 -0.640625q-0.59375 0 -1.25 0.375q-0.65625 0.359375 -1.015625 0.875l0 7.390625l-1.765625 0l0 -9.9375l1.203125 0l0.5625 1.28125q0.875 -1.46875 2.84375 -1.46875q3.265625 0 3.265625 3.96875l0 6.15625l-1.765625 0z" fill-rule="nonzero"></path><path fill="#f4cccc" d="m231.66652 80.296585l0 0c0 -22.030506 33.42 -39.88976 74.645676 -39.88976l0 0c41.225647 0 74.64566 17.859253 74.64566 39.88976l0 0c0 22.03051 -33.420013 39.889763 -74.64566 39.889763l0 0c-41.225677 0 -74.645676 -17.859253 -74.645676 -39.889763z" fill-rule="evenodd"></path><path stroke="#000000" stroke-width="1.0" stroke-linejoin="round" stroke-linecap="butt" d="m231.66652 80.296585l0 0c0 -22.030506 33.42 -39.88976 74.645676 -39.88976l0 0c41.225647 0 74.64566 17.859253 74.64566 39.88976l0 0c0 22.03051 -33.420013 39.889763 -74.64566 39.889763l0 0c-41.225677 0 -74.645676 -17.859253 -74.645676 -39.889763z" fill-rule="evenodd"></path><path fill="#000000" d="m264.5214 86.62283l0.609375 -1.671875q1.484375 0.96875 2.375 0.96875q1.640625 0 1.640625 -1.375q0 -0.984375 -1.578125 -1.6875q-1.21875 -0.5625 -1.640625 -0.84375q-0.421875 -0.296875 -0.734375 -0.65625q-0.3125 -0.359375 -0.46875 -0.765625q-0.140625 -0.421875 -0.140625 -0.90625q0 -1.21875 0.890625 -1.90625q0.890625 -0.6875 2.328125 -0.6875q1.078125 0 2.734375 0.6875l-0.5 1.640625q-1.046875 -0.84375 -2.109375 -0.84375q-0.625 0 -1.0625 0.296875q-0.421875 0.296875 -0.421875 0.75q0 0.953125 1.078125 1.453125l1.265625 0.578125q1.15625 0.53125 1.6875 1.203125q0.53125 0.671875 0.53125 1.703125q0 1.328125 -0.9375 2.09375q-0.9375 0.75 -2.609375 0.75q-1.5625 0 -2.9375 -0.78125zm8.833038 -7.953125l-1.15625 0l0 -1.390625l1.15625 0l0 -2.078125l1.75 -0.671875l0 2.75l2.734375 0l0 1.390625l-2.734375 0l0 4.9375q0 1.25 0.421875 1.78125q0.421875 0.53125 1.359375 0.53125q0.6875 0 1.40625 -0.34375l0.265625 1.546875q-1.09375 0.28125 -2.40625 0.28125q-1.1875 0 -2.0 -0.875q-0.796875 -0.875 -0.796875 -2.21875l0 -5.640625zm6.1156616 3.5625q0 -2.3125 1.234375 -3.71875q1.234375 -1.421875 3.265625 -1.421875q2.125 0 3.296875 1.359375q1.1875 1.359375 1.1875 3.78125q0 2.390625 -1.203125 3.78125q-1.203125 1.390625 -3.28125 1.390625q-2.125 0 -3.3125 -1.390625q-1.1875 -1.40625 -1.1875 -3.78125zm1.84375 0q0 3.734375 2.65625 3.734375q1.234375 0 1.921875 -1.0q0.703125 -1.0 0.703125 -2.734375q0 -3.703125 -2.625 -3.703125q-1.21875 0 -1.9375 0.984375q-0.71875 0.984375 -0.71875 2.71875zm16.308197 -4.140625l-0.875 1.234375q-0.265625 -0.265625 -0.953125 -0.5q-0.671875 -0.25 -1.34375 -0.25q-1.4375 0 -2.28125 1.015625q-0.84375 1.0 -0.84375 2.75q0 1.75 0.859375 2.671875q0.875 0.90625 2.40625 0.90625q1.1875 0 2.390625 -0.921875l0.6875 1.484375q-1.40625 0.921875 -3.515625 0.921875q-2.03125 0 -3.359375 -1.359375q-1.3125 -1.375 -1.3125 -3.703125q0 -2.375 1.375 -3.8125q1.375 -1.4375 3.765625 -1.4375q0.765625 0 1.671875 0.328125q0.90625 0.328125 1.328125 0.671875zm8.158905 9.125l-3.109375 -4.96875l-1.546875 1.578125l0 3.390625l-1.765625 0l0 -14.015625l1.765625 0l0 8.703125l3.796875 -4.625l2.0625 0l-3.171875 3.78125l3.875 6.15625l-1.90625 0zm9.113251 0l0 -6.25q0 -1.109375 -0.546875 -1.75q-0.546875 -0.640625 -1.546875 -0.640625q-0.640625 0 -1.28125 0.375q-0.640625 0.375 -0.984375 0.875l0 7.390625l-1.765625 0l0 -14.015625l1.765625 0l0 5.171875q0.359375 -0.546875 1.140625 -0.90625q0.78125 -0.375 1.609375 -0.375q1.578125 0 2.46875 1.046875q0.90625 1.03125 0.90625 2.828125l0 6.25l-1.765625 0zm3.427887 -4.984375q0 -2.3125 1.234375 -3.71875q1.234375 -1.421875 3.265625 -1.421875q2.125 0 3.296875 1.359375q1.1875 1.359375 1.1875 3.78125q0 2.390625 -1.203125 3.78125q-1.203125 1.390625 -3.28125 1.390625q-2.125 0 -3.3125 -1.390625q-1.1875 -1.40625 -1.1875 -3.78125zm1.84375 0q0 3.734375 2.65625 3.734375q1.234375 0 1.921875 -1.0q0.703125 -1.0 0.703125 -2.734375q0 -3.703125 -2.625 -3.703125q-1.21875 0 -1.9375 0.984375q-0.71875 0.984375 -0.71875 2.71875zm8.948853 2.171875l0 -11.203125l1.765625 0l0 10.90625q0 0.796875 0.453125 1.265625q0.46875 0.453125 1.203125 0.453125l0 1.578125q-3.421875 0 -3.421875 -3.0zm16.861511 2.8125l0 -6.296875q0 -2.34375 -2.03125 -2.34375q-0.640625 0 -1.203125 0.40625q-0.546875 0.390625 -0.75 0.890625l0 7.34375l-1.765625 0l0 -7.0625q0 -0.734375 -0.546875 -1.15625q-0.546875 -0.421875 -1.46875 -0.421875q-0.515625 0 -1.125 0.40625q-0.59375 0.40625 -0.84375 0.90625l0 7.328125l-1.765625 0l0 -9.9375l1.15625 0l0.578125 1.15625q1.03125 -1.34375 2.546875 -1.34375q2.140625 0 3.0 1.328125q0.296875 -0.5625 1.09375 -0.9375q0.8125 -0.390625 1.671875 -0.390625q1.53125 0 2.375 0.921875q0.84375 0.90625 0.84375 2.5625l0 6.640625l-1.765625 0z" fill-rule="nonzero"></path><path fill="#efefef" d="m167.57217 317.3622l0 0c0 -22.030518 26.101456 -39.88977 58.29921 -39.88977l0 0c32.19777 0 58.29921 17.859253 58.29921 39.88977l0 0c0 22.030487 -26.10144 39.88977 -58.29921 39.88977l0 0c-32.197754 0 -58.29921 -17.859283 -58.29921 -39.88977z" fill-rule="evenodd"></path><path stroke="#000000" stroke-width="1.0" stroke-linejoin="round" stroke-linecap="butt" d="m167.57217 317.3622l0 0c0 -22.030518 26.101456 -39.88977 58.29921 -39.88977l0 0c32.19777 0 58.29921 17.859253 58.29921 39.88977l0 0c0 22.030487 -26.10144 39.88977 -58.29921 39.88977l0 0c-32.197754 0 -58.29921 -17.859283 -58.29921 -39.88977z" fill-rule="evenodd"></path><path fill="#000000" d="m206.3961 319.48532l-7.171875 0q0 1.75 0.96875 2.6875q0.84375 0.8125 2.15625 0.8125q1.515625 0 2.53125 -0.890625l0.734375 1.28125q-0.40625 0.40625 -1.25 0.703125q-1.046875 0.390625 -2.359375 0.390625q-1.859375 0 -3.171875 -1.265625q-1.453125 -1.40625 -1.453125 -3.78125q0 -2.453125 1.484375 -3.9375q1.34375 -1.328125 3.171875 -1.328125q2.125 0 3.328125 1.203125q1.171875 1.140625 1.171875 3.046875q0 0.59375 -0.140625 1.078125zm-4.28125 -3.84375q-1.171875 0 -1.96875 0.765625q-0.765625 0.71875 -0.875 1.796875l5.5 0q0 -1.0625 -0.65625 -1.78125q-0.734375 -0.78125 -2.0 -0.78125zm7.753433 -1.296875l0 6.34375q0 2.296875 2.0 2.296875q0.875 0 1.59375 -0.5q0.71875 -0.5 0.953125 -1.15625l0 -6.984375l1.765625 0l0 9.9375l-1.765625 0l0 -1.375q-0.296875 0.59375 -1.203125 1.078125q-0.890625 0.484375 -1.734375 0.484375q-1.640625 0 -2.515625 -0.9375q-0.859375 -0.9375 -0.859375 -2.671875l0 -6.515625l1.765625 0zm13.927902 1.703125q-0.578125 -0.40625 -1.15625 -0.40625q-0.9375 0 -1.640625 0.875q-0.703125 0.859375 -0.703125 2.0625l0 5.703125l-1.765625 0l0 -9.9375l1.765625 0l0 1.59375q0.96875 -1.78125 2.859375 -1.78125q0.484375 0 1.375 0.171875l-0.734375 1.71875zm1.2042847 3.25q0 -2.3125 1.234375 -3.71875q1.234375 -1.421875 3.265625 -1.421875q2.125 0 3.296875 1.359375q1.1875 1.359375 1.1875 3.78125q0 2.390625 -1.203125 3.78125q-1.203125 1.390625 -3.28125 1.390625q-2.125 0 -3.3125 -1.390625q-1.1875 -1.40625 -1.1875 -3.78125zm1.84375 0q0 3.734375 2.65625 3.734375q1.234375 0 1.921875 -1.0q0.703125 -1.0 0.703125 -2.734375q0 -3.703125 -2.625 -3.703125q-1.21875 0 -1.9375 0.984375q-0.71875 0.984375 -0.71875 2.71875zm10.573837 4.4375l0 4.4375l-1.765625 0l0 -13.828125l1.765625 0l0 0.8125q1.0 -1.0 2.421875 -1.0q2.109375 0 3.28125 1.328125q1.1875 1.3125 1.1875 3.859375q0 2.25 -1.1875 3.6875q-1.1875 1.4375 -3.4375 1.4375q-0.625 0 -1.34375 -0.21875q-0.71875 -0.234375 -0.921875 -0.515625zm0 -7.25l0 5.796875q0.171875 0.25 0.703125 0.484375q0.546875 0.21875 1.046875 0.21875q3.28125 0 3.28125 -3.71875q0 -1.875 -0.78125 -2.75q-0.765625 -0.875 -2.484375 -0.875q-0.375 0 -0.921875 0.265625q-0.53125 0.25 -0.84375 0.578125zm17.003311 3.0l-7.171875 0q0 1.75 0.96875 2.6875q0.84375 0.8125 2.15625 0.8125q1.515625 0 2.53125 -0.890625l0.734375 1.28125q-0.40625 0.40625 -1.25 0.703125q-1.046875 0.390625 -2.359375 0.390625q-1.859375 0 -3.171875 -1.265625q-1.453125 -1.40625 -1.453125 -3.78125q0 -2.453125 1.484375 -3.9375q1.34375 -1.328125 3.171875 -1.328125q2.125 0 3.328125 1.203125q1.171875 1.140625 1.171875 3.046875q0 0.59375 -0.140625 1.078125zm-4.28125 -3.84375q-1.171875 0 -1.96875 0.765625q-0.765625 0.71875 -0.875 1.796875l5.5 0q0 -1.0625 -0.65625 -1.78125q-0.734375 -0.78125 -2.0 -0.78125z" fill-rule="nonzero"></path><path fill="#fff2cc" d="m512.2677 80.461945l0 0c0 -19.029907 23.231873 -34.456696 51.88977 -34.456696l0 0c28.657959 0 51.88977 15.426788 51.88977 34.456696l0 0c0 19.029907 -23.231812 34.456688 -51.88977 34.456688l0 0c-28.657898 0 -51.88977 -15.426781 -51.88977 -34.456688z" fill-rule="evenodd"></path><path stroke="#000000" stroke-width="1.0" stroke-linejoin="round" stroke-linecap="butt" d="m512.2677 80.461945l0 0c0 -19.029907 23.231873 -34.456696 51.88977 -34.456696l0 0c28.657959 0 51.88977 15.426788 51.88977 34.456696l0 0c0 19.029907 -23.231812 34.456688 -51.88977 34.456688l0 0c-28.657898 0 -51.88977 -15.426781 -51.88977 -34.456688z" fill-rule="evenodd"></path><path fill="#000000" d="m542.1186 73.69444q0.453125 0 0.765625 0.328125q0.328125 0.3125 0.328125 0.75q0 0.453125 -0.328125 0.78125q-0.3125 0.3125 -0.765625 0.3125q-0.453125 0 -0.765625 -0.3125q-0.3125 -0.328125 -0.3125 -0.78125q0 -0.453125 0.3125 -0.765625q0.3125 -0.3125 0.765625 -0.3125zm-3.796875 17.578125l0 -1.578125q1.8125 0 2.484375 -0.546875q0.671875 -0.546875 0.671875 -1.8125l0 -8.40625l-1.96875 0l0 -1.484375l3.734375 0l0 9.859375q0 2.046875 -1.203125 3.0q-1.203125 0.96875 -3.71875 0.96875zm13.528748 -5.03125q-1.046875 1.328125 -3.234375 1.328125q-1.171875 0 -2.03125 -0.84375q-0.84375 -0.859375 -0.84375 -2.125q0 -1.5 1.3125 -2.546875q1.328125 -1.046875 3.375 -1.046875q0.5625 0 1.265625 0.25q0 -2.421875 -2.15625 -2.421875q-1.65625 0 -2.546875 0.890625l-0.734375 -1.46875q0.5 -0.40625 1.375 -0.703125q0.890625 -0.296875 1.703125 -0.296875q2.15625 0 3.140625 0.984375q0.984375 0.984375 0.984375 3.125l0 3.5625q0 1.3125 0.765625 1.75l0 0.875q-1.0625 0 -1.609375 -0.296875q-0.53125 -0.3125 -0.765625 -1.015625zm-0.15625 -3.734375q-0.84375 -0.1875 -1.171875 -0.1875q-1.34375 0 -2.1875 0.6875q-0.84375 0.6875 -0.84375 1.625q0 1.546875 1.828125 1.546875q1.34375 0 2.375 -1.28125l0 -2.390625zm3.7080688 4.28125l0.609375 -1.671875q1.484375 0.96875 2.375 0.96875q1.640625 0 1.640625 -1.375q0 -0.984375 -1.578125 -1.6875q-1.21875 -0.5625 -1.640625 -0.84375q-0.421875 -0.296875 -0.734375 -0.65625q-0.3125 -0.359375 -0.46875 -0.765625q-0.140625 -0.421875 -0.140625 -0.90625q0 -1.21875 0.890625 -1.90625q0.890625 -0.6875 2.328125 -0.6875q1.078125 0 2.734375 0.6875l-0.5 1.640625q-1.046875 -0.84375 -2.109375 -0.84375q-0.625 0 -1.0625 0.296875q-0.421875 0.296875 -0.421875 0.75q0 0.953125 1.078125 1.453125l1.265625 0.578125q1.15625 0.53125 1.6875 1.203125q0.53125 0.671875 0.53125 1.703125q0 1.328125 -0.9375 2.09375q-0.9375 0.75 -2.609375 0.75q-1.5625 0 -2.9375 -0.78125zm9.958008 0.046875l0 4.4375l-1.765625 0l0 -13.828125l1.765625 0l0 0.8125q1.0 -1.0 2.421875 -1.0q2.109375 0 3.28125 1.328125q1.1875 1.3125 1.1875 3.859375q0 2.25 -1.1875 3.6875q-1.1875 1.4375 -3.4375 1.4375q-0.625 0 -1.34375 -0.21875q-0.71875 -0.234375 -0.921875 -0.515625zm0 -7.25l0 5.796875q0.171875 0.25 0.703125 0.484375q0.546875 0.21875 1.046875 0.21875q3.28125 0 3.28125 -3.71875q0 -1.875 -0.78125 -2.75q-0.765625 -0.875 -2.484375 -0.875q-0.375 0 -0.921875 0.265625q-0.53125 0.25 -0.84375 0.578125zm17.003357 3.0l-7.171875 0q0 1.75 0.96875 2.6875q0.84375 0.8125 2.15625 0.8125q1.515625 0 2.53125 -0.890625l0.734375 1.28125q-0.40625 0.40625 -1.25 0.703125q-1.046875 0.390625 -2.359375 0.390625q-1.859375 0 -3.171875 -1.265625q-1.453125 -1.40625 -1.453125 -3.78125q0 -2.453125 1.484375 -3.9375q1.34375 -1.328125 3.171875 -1.328125q2.125 0 3.328125 1.203125q1.171875 1.140625 1.171875 3.046875q0 0.59375 -0.140625 1.078125zm-4.28125 -3.84375q-1.171875 0 -1.96875 0.765625q-0.765625 0.71875 -0.875 1.796875l5.5 0q0 -1.0625 -0.65625 -1.78125q-0.734375 -0.78125 -2.0 -0.78125zm11.487793 0.40625q-0.578125 -0.40625 -1.15625 -0.40625q-0.9375 0 -1.640625 0.875q-0.703125 0.859375 -0.703125 2.0625l0 5.703125l-1.765625 0l0 -9.9375l1.765625 0l0 1.59375q0.96875 -1.78125 2.859375 -1.78125q0.484375 0 1.375 0.171875l-0.734375 1.71875z" fill-rule="nonzero"></path><path fill="#000000" fill-opacity="0.0" d="m135.06824 80.296585c24.149612 0 36.22441 0.01574707 48.29921 0.03150177c12.074814 0.01574707 24.149612 0.03149414 48.299225 0.03149414" fill-rule="evenodd"></path><path stroke="#000000" stroke-width="1.0" stroke-linejoin="round" stroke-linecap="butt" d="m138.49533 80.297165l12.609756 0.002128601c4.7167206 0.0017242432 8.867432 0.004180908 12.640808 0.007133484c7.546753 0.0059051514 13.584152 0.013786316 19.621552 0.021659851c12.074814 0.01574707 24.149612 0.03149414 48.299225 0.03149414" fill-rule="evenodd"></path><path fill="#000000" stroke="#000000" stroke-width="1.0" stroke-linecap="butt" d="m138.49533 80.297165l1.1247711 -1.1243896l-3.0899658 1.1240616l3.0895844 1.1250992z" fill-rule="evenodd"></path><path fill="#000000" fill-opacity="0.0" d="m142.24803 41.47769l89.41733 0l0 46.645668l-89.41733 0z" fill-rule="evenodd"></path><path fill="#000000" d="m159.99803 59.27269l-0.875 1.234375q-0.265625 -0.265625 -0.953125 -0.5q-0.671875 -0.25 -1.34375 -0.25q-1.4375 0 -2.28125 1.015625q-0.84375 1.0 -0.84375 2.75q0 1.75 0.859375 2.671875q0.875 0.90625 2.40625 0.90625q1.1875 0 2.390625 -0.921875l0.6875 1.484375q-1.40625 0.921875 -3.515625 0.921875q-2.03125 0 -3.359375 -1.359375q-1.3125 -1.375 -1.3125 -3.703125q0 -2.375 1.375 -3.8125q1.375 -1.4375 3.765625 -1.4375q0.765625 0 1.671875 0.328125q0.90625 0.328125 1.328125 0.671875zm1.096405 4.140625q0 -2.3125 1.234375 -3.71875q1.234375 -1.421875 3.265625 -1.421875q2.125 0 3.296875 1.359375q1.1875 1.359375 1.1875 3.78125q0 2.390625 -1.203125 3.78125q-1.203125 1.390625 -3.28125 1.390625q-2.125 0 -3.3125 -1.390625q-1.1875 -1.40625 -1.1875 -3.78125zm1.84375 0q0 3.734375 2.65625 3.734375q1.234375 0 1.921875 -1.0q0.703125 -1.0 0.703125 -2.734375q0 -3.703125 -2.625 -3.703125q-1.21875 0 -1.9375 0.984375q-0.71875 0.984375 -0.71875 2.71875zm10.480087 -4.953125l0 6.34375q0 2.296875 2.0 2.296875q0.875 0 1.59375 -0.5q0.71875 -0.5 0.953125 -1.15625l0 -6.984375l1.765625 0l0 9.9375l-1.765625 0l0 -1.375q-0.296875 0.59375 -1.203125 1.078125q-0.890625 0.484375 -1.734375 0.484375q-1.640625 0 -2.515625 -0.9375q-0.859375 -0.9375 -0.859375 -2.671875l0 -6.515625l1.765625 0zm14.631027 9.9375l0 -5.78125q0 -1.578125 -0.484375 -2.21875q-0.46875 -0.640625 -1.59375 -0.640625q-0.59375 0 -1.25 0.375q-0.65625 0.359375 -1.015625 0.875l0 7.390625l-1.765625 0l0 -9.9375l1.203125 0l0.5625 1.28125q0.875 -1.46875 2.84375 -1.46875q3.265625 0 3.265625 3.96875l0 6.15625l-1.765625 0zm4.724777 -8.546875l-1.15625 0l0 -1.390625l1.15625 0l0 -2.078125l1.75 -0.671875l0 2.75l2.734375 0l0 1.390625l-2.734375 0l0 4.9375q0 1.25 0.421875 1.78125q0.421875 0.53125 1.359375 0.53125q0.6875 0 1.40625 -0.34375l0.265625 1.546875q-1.09375 0.28125 -2.40625 0.28125q-1.1875 0 -2.0 -0.875q-0.796875 -0.875 -0.796875 -2.21875l0 -5.640625zm12.162537 0.3125q-0.578125 -0.40625 -1.15625 -0.40625q-0.9375 0 -1.640625 0.875q-0.703125 0.859375 -0.703125 2.0625l0 5.703125l-1.765625 0l0 -9.9375l1.765625 0l0 1.59375q0.96875 -1.78125 2.859375 -1.78125q0.484375 0 1.375 0.171875l-0.734375 1.71875zm5.6417847 9.921875q-0.34375 0.953125 -1.453125 1.578125q-1.09375 0.625 -2.4375 0.625l0 -1.578125q1.09375 0 1.875 -0.515625q0.796875 -0.5 0.796875 -1.25q0 -0.8125 -0.296875 -1.609375q-0.28125 -0.796875 -0.734375 -1.96875l-2.6875 -6.90625l1.796875 0l2.921875 7.6875l2.625 -7.6875l1.8125 0l-4.21875 11.625z" fill-rule="nonzero"></path><path fill="#000000" fill-opacity="0.0" d="m117.9928 108.50291c0 18.34172 33.88188 36.675575 67.76378 36.68345c33.881897 0.007873535 67.76378 -18.310226 67.76378 -36.620453" fill-rule="evenodd"></path><path stroke="#000000" stroke-width="1.0" stroke-linejoin="round" stroke-linecap="butt" d="m117.99279 108.502914c0 18.34172 33.88189 36.675568 67.76379 36.68344c16.940948 0.0039367676 33.881897 -4.5736237 46.5876 -11.440933c6.3528595 -3.43367 11.646896 -7.4397736 15.352737 -11.731834c1.8529205 -2.1460419 3.308792 -4.363571 4.301407 -6.616791c0.49632263 -1.1266098 0.8768158 -2.2621384 1.133255 -3.4021072l0.004928589 -0.023262024" fill-rule="evenodd"></path><path fill="#000000" stroke="#000000" stroke-width="1.0" stroke-linecap="butt" d="m253.13649 111.97142l0.99154663 1.2434769l-0.77142334 -3.196289l-1.4635925 2.9443588z" fill-rule="evenodd"></path><path fill="#000000" fill-opacity="0.0" d="m144.86351 136.70341l84.18898 0l0 42.4252l-84.18898 0z" fill-rule="evenodd"></path><path fill="#000000" d="m162.61351 154.49841l-0.875 1.234375q-0.265625 -0.265625 -0.953125 -0.5q-0.671875 -0.25 -1.34375 -0.25q-1.4375 0 -2.28125 1.015625q-0.84375 1.0 -0.84375 2.75q0 1.75 0.859375 2.671875q0.875 0.90625 2.40625 0.90625q1.1875 0 2.390625 -0.921875l0.6875 1.484375q-1.40625 0.921875 -3.515625 0.921875q-2.03125 0 -3.359375 -1.359375q-1.3125 -1.375 -1.3125 -3.703125q0 -2.375 1.375 -3.8125q1.375 -1.4375 3.765625 -1.4375q0.765625 0 1.671875 0.328125q0.90625 0.328125 1.328125 0.671875zm7.346405 7.984375q-1.046875 1.328125 -3.234375 1.328125q-1.171875 0 -2.03125 -0.84375q-0.84375 -0.859375 -0.84375 -2.125q0 -1.5 1.3125 -2.546875q1.328125 -1.046875 3.375 -1.046875q0.5625 0 1.265625 0.25q0 -2.421875 -2.15625 -2.421875q-1.65625 0 -2.546875 0.890625l-0.734375 -1.46875q0.5 -0.40625 1.375 -0.703125q0.890625 -0.296875 1.703125 -0.296875q2.15625 0 3.140625 0.984375q0.984375 0.984375 0.984375 3.125l0 3.5625q0 1.3125 0.765625 1.75l0 0.875q-1.0625 0 -1.609375 -0.296875q-0.53125 -0.3125 -0.765625 -1.015625zm-0.15625 -3.734375q-0.84375 -0.1875 -1.171875 -0.1875q-1.34375 0 -2.1875 0.6875q-0.84375 0.6875 -0.84375 1.625q0 1.546875 1.828125 1.546875q1.34375 0 2.375 -1.28125l0 -2.390625zm6.114319 4.328125l0 4.4375l-1.765625 0l0 -13.828125l1.765625 0l0 0.8125q1.0 -1.0 2.421875 -1.0q2.109375 0 3.28125 1.328125q1.1875 1.3125 1.1875 3.859375q0 2.25 -1.1875 3.6875q-1.1875 1.4375 -3.4375 1.4375q-0.625 0 -1.34375 -0.21875q-0.71875 -0.234375 -0.921875 -0.515625zm0 -7.25l0 5.796875q0.171875 0.25 0.703125 0.484375q0.546875 0.21875 1.046875 0.21875q3.28125 0 3.28125 -3.71875q0 -1.875 -0.78125 -2.75q-0.765625 -0.875 -2.484375 -0.875q-0.375 0 -0.921875 0.265625q-0.53125 0.25 -0.84375 0.578125zm10.456436 -5.890625q0.453125 0 0.765625 0.328125q0.328125 0.3125 0.328125 0.75q0 0.453125 -0.328125 0.78125q-0.3125 0.3125 -0.765625 0.3125q-0.453125 0 -0.78125 -0.3125q-0.3125 -0.328125 -0.3125 -0.78125q0 -0.453125 0.3125 -0.765625q0.3125 -0.3125 0.78125 -0.3125zm-0.96875 13.6875l0 -8.453125l-1.359375 0l0 -1.484375l3.125 0l0 9.9375l-1.765625 0zm5.1011963 -8.546875l-1.15625 0l0 -1.390625l1.15625 0l0 -2.078125l1.75 -0.671875l0 2.75l2.734375 0l0 1.390625l-2.734375 0l0 4.9375q0 1.25 0.421875 1.78125q0.421875 0.53125 1.359375 0.53125q0.6875 0 1.40625 -0.34375l0.265625 1.546875q-1.09375 0.28125 -2.40625 0.28125q-1.1875 0 -2.0 -0.875q-0.796875 -0.875 -0.796875 -2.21875l0 -5.640625zm12.365662 7.40625q-1.046875 1.328125 -3.234375 1.328125q-1.171875 0 -2.03125 -0.84375q-0.84375 -0.859375 -0.84375 -2.125q0 -1.5 1.3125 -2.546875q1.328125 -1.046875 3.375 -1.046875q0.5625 0 1.265625 0.25q0 -2.421875 -2.15625 -2.421875q-1.65625 0 -2.546875 0.890625l-0.734375 -1.46875q0.5 -0.40625 1.375 -0.703125q0.890625 -0.296875 1.703125 -0.296875q2.15625 0 3.140625 0.984375q0.984375 0.984375 0.984375 3.125l0 3.5625q0 1.3125 0.765625 1.75l0 0.875q-1.0625 0 -1.609375 -0.296875q-0.53125 -0.3125 -0.765625 -1.015625zm-0.15625 -3.734375q-0.84375 -0.1875 -1.171875 -0.1875q-1.34375 0 -2.1875 0.6875q-0.84375 0.6875 -0.84375 1.625q0 1.546875 1.828125 1.546875q1.34375 0 2.375 -1.28125l0 -2.390625zm4.489319 2.0625l0 -11.203125l1.765625 0l0 10.90625q0 0.796875 0.453125 1.265625q0.46875 0.453125 1.203125 0.453125l0 1.578125q-3.421875 0 -3.421875 -3.0z" fill-rule="nonzero"></path><path fill="#000000" fill-opacity="0.0" d="m76.76903 120.18635c0 98.58268 45.401573 197.16537 90.80315 197.16537" fill-rule="evenodd"></path><path stroke="#000000" stroke-width="1.0" stroke-linejoin="round" stroke-linecap="butt" d="m76.76903 120.18635c0 49.291344 11.350395 98.58268 28.375984 135.55118c8.5127945 18.484238 18.44439 33.887802 29.08538 44.670273c5.3204956 5.3912354 10.818344 9.627228 16.404877 12.515381c2.7932434 1.4440918 5.6086884 2.5512085 8.435196 3.2973328c1.413269 0.37304688 2.8292847 0.65582275 4.246704 0.84539795c0.1771698 0.02368164 0.35437012 0.045898438 0.53160095 0.06668091l0.3013916 0.032836914" fill-rule="evenodd"></path><path fill="#000000" stroke="#000000" stroke-width="1.0" stroke-linecap="butt" d="m164.15016 317.16544l-1.1840515 1.0617981l3.1463318 -0.9549866l-3.0240784 -1.290863z" fill-rule="evenodd"></path><path fill="#000000" fill-opacity="0.0" d="m-8.0 247.20079l127.11811 0l0 42.425186l-127.11811 0z" fill-rule="evenodd"></path><path fill="#000000" d="m11.4375 274.3083l-0.46875 0l-2.90625 -6.765625l-2.90625 6.765625l-0.46875 0l-3.546875 -10.15625l1.875 0l2.125 6.53125l2.65625 -6.53125l0.453125 0l2.734375 6.53125l2.28125 -6.53125l1.734375 0l-3.5625 10.15625zm4.0547485 -5.171875q0 -2.3125 1.234375 -3.71875q1.234375 -1.421875 3.265625 -1.421875q2.125 0 3.296875 1.359375q1.1875 1.359375 1.1875 3.78125q0 2.390625 -1.203125 3.78125q-1.203125 1.390625 -3.28125 1.390625q-2.125 0 -3.3125 -1.390625q-1.1875 -1.40625 -1.1875 -3.78125zm1.84375 0q0 3.734375 2.65625 3.734375q1.234375 0 1.921875 -1.0q0.703125 -1.0 0.703125 -2.734375q0 -3.703125 -2.625 -3.703125q-1.21875 0 -1.9375 0.984375q-0.71875 0.984375 -0.71875 2.71875zm14.214462 -3.25q-0.578125 -0.40625 -1.15625 -0.40625q-0.9375 0 -1.640625 0.875q-0.703125 0.859375 -0.703125 2.0625l0 5.703125l-1.765625 0l0 -9.9375l1.765625 0l0 1.59375q0.96875 -1.78125 2.859375 -1.78125q0.484375 0 1.375 0.171875l-0.734375 1.71875zm1.9855347 5.421875l0 -11.203125l1.765625 0l0 10.90625q0 0.796875 0.453125 1.265625q0.46875 0.453125 1.203125 0.453125l0 1.578125q-3.421875 0 -3.421875 -3.0zm11.658386 2.796875l0 -0.734375q-0.90625 0.921875 -2.671875 0.921875q-1.859375 0 -3.015625 -1.328125q-1.15625 -1.34375 -1.15625 -3.5625q0 -2.234375 1.328125 -3.8125q1.34375 -1.59375 3.1875 -1.59375q1.53125 0 2.328125 0.734375l0 -4.625l1.765625 0l0 14.0l-1.765625 0zm0 -7.625q-0.65625 -1.0 -1.828125 -1.0q-1.40625 0 -2.296875 1.0625q-0.875 1.0625 -0.875 2.6875q0 3.59375 3.265625 3.59375q0.421875 0 1.0 -0.265625q0.59375 -0.265625 0.734375 -0.5625l0 -5.515625zm15.123871 -0.59375q-0.578125 -0.40625 -1.15625 -0.40625q-0.9375 0 -1.640625 0.875q-0.703125 0.859375 -0.703125 2.0625l0 5.703125l-1.765625 0l0 -9.9375l1.765625 0l0 1.59375q0.96875 -1.78125 2.859375 -1.78125q0.484375 0 1.375 0.171875l-0.734375 1.71875zm10.21991 3.4375l-7.171875 0q0 1.75 0.96875 2.6875q0.84375 0.8125 2.15625 0.8125q1.515625 0 2.53125 -0.890625l0.734375 1.28125q-0.40625 0.40625 -1.25 0.703125q-1.046875 0.390625 -2.359375 0.390625q-1.859375 0 -3.171875 -1.265625q-1.453125 -1.40625 -1.453125 -3.78125q0 -2.453125 1.484375 -3.9375q1.34375 -1.328125 3.171875 -1.328125q2.125 0 3.328125 1.203125q1.171875 1.140625 1.171875 3.046875q0 0.59375 -0.140625 1.078125zm-4.28125 -3.84375q-1.171875 0 -1.96875 0.765625q-0.765625 0.71875 -0.875 1.796875l5.5 0q0 -1.0625 -0.65625 -1.78125q-0.734375 -0.78125 -2.0 -0.78125zm5.722183 11.359375l0.953125 -1.40625q1.546875 1.03125 2.84375 1.03125q1.1875 0 1.875 -0.421875q0.703125 -0.40625 0.703125 -1.015625q0 -1.21875 -1.75 -1.21875q-0.296875 0 -1.078125 0.15625q-0.765625 0.140625 -1.203125 0.140625q-2.125 0 -2.125 -1.59375q0 -0.484375 0.5 -0.875q0.5 -0.40625 1.234375 -0.59375q-2.09375 -0.96875 -2.09375 -3.40625q0 -1.5625 1.078125 -2.59375q1.078125 -1.046875 2.6875 -1.046875q1.453125 0 2.28125 0.609375l0.890625 -1.0625l1.140625 1.09375l-1.046875 0.796875q0.671875 0.875 0.671875 2.296875q0 1.5 -0.9375 2.53125q-0.9375 1.015625 -2.453125 1.15625l-1.46875 0.15625q-0.25 0.015625 -0.6875 0.1875q-0.4375 0.171875 -0.4375 0.453125q0 0.390625 0.90625 0.390625q0.40625 0 1.25 -0.140625q0.84375 -0.15625 1.25 -0.15625q1.46875 0 2.28125 0.703125q0.828125 0.703125 0.828125 1.9375q0 1.375 -1.234375 2.21875q-1.234375 0.84375 -3.109375 0.84375q-0.96875 0 -2.03125 -0.34375q-1.0625 -0.34375 -1.71875 -0.828125zm3.734375 -11.421875q-0.90625 0 -1.5 0.65625q-0.578125 0.640625 -0.578125 1.578125q0 1.03125 0.5625 1.71875q0.5625 0.671875 1.515625 0.671875q0.9375 0 1.46875 -0.65625q0.53125 -0.671875 0.53125 -1.734375q0 -0.9375 -0.578125 -1.578125q-0.5625 -0.65625 -1.421875 -0.65625zm7.817688 -4.984375q0.453125 0 0.765625 0.328125q0.328125 0.3125 0.328125 0.75q0 0.453125 -0.328125 0.78125q-0.3125 0.3125 -0.765625 0.3125q-0.453125 0 -0.78125 -0.3125q-0.3125 -0.328125 -0.3125 -0.78125q0 -0.453125 0.3125 -0.765625q0.3125 -0.3125 0.78125 -0.3125zm-0.96875 13.6875l0 -8.453125l-1.359375 0l0 -1.484375l3.125 0l0 9.9375l-1.765625 0zm3.8199463 -4.984375q0 -2.3125 1.234375 -3.71875q1.234375 -1.421875 3.265625 -1.421875q2.125 0 3.296875 1.359375q1.1875 1.359375 1.1875 3.78125q0 2.390625 -1.203125 3.78125q-1.203125 1.390625 -3.28125 1.390625q-2.125 0 -3.3125 -1.390625q-1.1875 -1.40625 -1.1875 -3.78125zm1.84375 0q0 3.734375 2.65625 3.734375q1.234375 0 1.921875 -1.0q0.703125 -1.0 0.703125 -2.734375q0 -3.703125 -2.625 -3.703125q-1.21875 0 -1.9375 0.984375q-0.71875 0.984375 -0.71875 2.71875zm14.917587 4.984375l0 -5.78125q0 -1.578125 -0.484375 -2.21875q-0.46875 -0.640625 -1.59375 -0.640625q-0.59375 0 -1.25 0.375q-0.65625 0.359375 -1.015625 0.875l0 7.390625l-1.765625 0l0 -9.9375l1.203125 0l0.5625 1.28125q0.875 -1.46875 2.84375 -1.46875q3.265625 0 3.265625 3.96875l0 6.15625l-1.765625 0z" fill-rule="nonzero"></path><path fill="#000000" fill-opacity="0.0" d="m512.2677 80.461945c-32.827423 0 -49.241455 -0.039375305 -65.65485 -0.07874298c-16.413391 -0.039367676 -32.82611 -0.07874298 -65.65222 -0.07874298" fill-rule="evenodd"></path><path stroke="#000000" stroke-width="1.0" stroke-linejoin="round" stroke-linecap="butt" d="m512.2677 80.461945c-32.827423 0 -49.241455 -0.039375305 -65.65485 -0.07874298c-8.206696 -0.019683838 -16.413208 -0.039367676 -26.671326 -0.054130554c-5.129059 -0.007385254 -10.770996 -0.013534546 -17.182343 -0.017845154l-18.37146 -0.0056991577" fill-rule="evenodd"></path><path fill="#000000" stroke="#000000" stroke-width="1.0" stroke-linecap="butt" d="m384.38773 80.30553l1.1249084 -1.1242371l-3.090088 1.1236267l3.0894165 1.1255417z" fill-rule="evenodd"></path><path fill="#000000" fill-opacity="0.0" d="m395.66928 38.230972l116.59842 0l0 42.425194l-116.59842 0z" fill-rule="evenodd"></path><path fill="#000000" d="m412.04428 65.15097l0 -6.25q0 -1.109375 -0.546875 -1.75q-0.546875 -0.640625 -1.546875 -0.640625q-0.640625 0 -1.28125 0.375q-0.640625 0.375 -0.984375 0.875l0 7.390625l-1.765625 0l0 -14.015625l1.765625 0l0 5.171875q0.359375 -0.546875 1.140625 -0.90625q0.78125 -0.375 1.609375 -0.375q1.578125 0 2.46875 1.046875q0.90625 1.03125 0.90625 2.828125l0 6.25l-1.765625 0zm3.427887 -4.984375q0 -2.3125 1.234375 -3.71875q1.234375 -1.421875 3.265625 -1.421875q2.125 0 3.296875 1.359375q1.1875 1.359375 1.1875 3.78125q0 2.390625 -1.203125 3.78125q-1.203125 1.390625 -3.28125 1.390625q-2.125 0 -3.3125 -1.390625q-1.1875 -1.40625 -1.1875 -3.78125zm1.84375 0q0 3.734375 2.65625 3.734375q1.234375 0 1.921875 -1.0q0.703125 -1.0 0.703125 -2.734375q0 -3.703125 -2.625 -3.703125q-1.21875 0 -1.9375 0.984375q-0.71875 0.984375 -0.71875 2.71875zm20.308228 4.984375l0 -6.296875q0 -2.34375 -2.03125 -2.34375q-0.640625 0 -1.203125 0.40625q-0.546875 0.390625 -0.75 0.890625l0 7.34375l-1.765625 0l0 -7.0625q0 -0.734375 -0.546875 -1.15625q-0.546875 -0.421875 -1.46875 -0.421875q-0.515625 0 -1.125 0.40625q-0.59375 0.40625 -0.84375 0.90625l0 7.328125l-1.765625 0l0 -9.9375l1.15625 0l0.578125 1.15625q1.03125 -1.34375 2.546875 -1.34375q2.140625 0 3.0 1.328125q0.296875 -0.5625 1.09375 -0.9375q0.8125 -0.390625 1.671875 -0.390625q1.53125 0 2.375 0.921875q0.84375 0.90625 0.84375 2.5625l0 6.640625l-1.765625 0zm12.361145 -4.796875l-7.171875 0q0 1.75 0.96875 2.6875q0.84375 0.8125 2.15625 0.8125q1.515625 0 2.53125 -0.890625l0.734375 1.28125q-0.40625 0.40625 -1.25 0.703125q-1.046875 0.390625 -2.359375 0.390625q-1.859375 0 -3.171875 -1.265625q-1.453125 -1.40625 -1.453125 -3.78125q0 -2.453125 1.484375 -3.9375q1.34375 -1.328125 3.171875 -1.328125q2.125 0 3.328125 1.203125q1.171875 1.140625 1.171875 3.046875q0 0.59375 -0.140625 1.078125zm-4.28125 -3.84375q-1.171875 0 -1.96875 0.765625q-0.765625 0.71875 -0.875 1.796875l5.5 0q0 -1.0625 -0.65625 -1.78125q-0.734375 -0.78125 -2.0 -0.78125zm12.342743 0.09375l-1.15625 0l0 -1.390625l1.15625 0l0 -2.078125l1.75 -0.671875l0 2.75l2.734375 0l0 1.390625l-2.734375 0l0 4.9375q0 1.25 0.421875 1.78125q0.421875 0.53125 1.359375 0.53125q0.6875 0 1.40625 -0.34375l0.265625 1.546875q-1.09375 0.28125 -2.40625 0.28125q-1.1875 0 -2.0 -0.875q-0.796875 -0.875 -0.796875 -2.21875l0 -5.640625zm6.1156616 3.5625q0 -2.3125 1.234375 -3.71875q1.234375 -1.421875 3.265625 -1.421875q2.125 0 3.296875 1.359375q1.1875 1.359375 1.1875 3.78125q0 2.390625 -1.203125 3.78125q-1.203125 1.390625 -3.28125 1.390625q-2.125 0 -3.3125 -1.390625q-1.1875 -1.40625 -1.1875 -3.78125zm1.84375 0q0 3.734375 2.65625 3.734375q1.234375 0 1.921875 -1.0q0.703125 -1.0 0.703125 -2.734375q0 -3.703125 -2.625 -3.703125q-1.21875 0 -1.9375 0.984375q-0.71875 0.984375 -0.71875 2.71875zm17.995697 5.171875l-0.46875 0l-2.90625 -6.765625l-2.90625 6.765625l-0.46875 0l-3.546875 -10.15625l1.875 0l2.125 6.53125l2.65625 -6.53125l0.453125 0l2.734375 6.53125l2.28125 -6.53125l1.734375 0l-3.5625 10.15625zm10.804749 -0.1875l0 -5.78125q0 -1.578125 -0.484375 -2.21875q-0.46875 -0.640625 -1.59375 -0.640625q-0.59375 0 -1.25 0.375q-0.65625 0.359375 -1.015625 0.875l0 7.390625l-1.765625 0l0 -9.9375l1.203125 0l0.5625 1.28125q0.875 -1.46875 2.84375 -1.46875q3.265625 0 3.265625 3.96875l0 6.15625l-1.765625 0z" fill-rule="nonzero"></path><path fill="#d9ead3" d="m487.73227 233.36482l0 0c0 -17.925323 34.216766 -32.45668 76.4252 -32.45668l0 0c42.208496 0 76.42523 14.531357 76.42523 32.45668l0 0c0 17.925339 -34.216736 32.45671 -76.42523 32.45671l0 0c-42.208435 0 -76.4252 -14.531372 -76.4252 -32.45671z" fill-rule="evenodd"></path><path stroke="#000000" stroke-width="1.0" stroke-linejoin="round" stroke-linecap="butt" d="m487.73227 233.36482l0 0c0 -17.925323 34.216766 -32.45668 76.4252 -32.45668l0 0c42.208496 0 76.42523 14.531357 76.42523 32.45668l0 0c0 17.925339 -34.216736 32.45671 -76.42523 32.45671l0 0c-42.208435 0 -76.4252 -14.531372 -76.4252 -32.45671z" fill-rule="evenodd"></path><path fill="#000000" d="m520.8579 243.00357l0.953125 -1.40625q1.546875 1.03125 2.84375 1.03125q1.1875 0 1.875 -0.421875q0.703125 -0.40625 0.703125 -1.015625q0 -1.21875 -1.75 -1.21875q-0.296875 0 -1.078125 0.15625q-0.765625 0.140625 -1.203125 0.140625q-2.125 0 -2.125 -1.59375q0 -0.484375 0.5 -0.875q0.5 -0.40625 1.234375 -0.59375q-2.09375 -0.96875 -2.09375 -3.40625q0 -1.5625 1.078125 -2.59375q1.078125 -1.046875 2.6875 -1.046875q1.453125 0 2.28125 0.609375l0.890625 -1.0625l1.140625 1.09375l-1.046875 0.796875q0.671875 0.875 0.671875 2.296875q0 1.5 -0.9375 2.53125q-0.9375 1.015625 -2.453125 1.15625l-1.46875 0.15625q-0.25 0.015625 -0.6875 0.1875q-0.4375 0.171875 -0.4375 0.453125q0 0.390625 0.90625 0.390625q0.40625 0 1.25 -0.140625q0.84375 -0.15625 1.25 -0.15625q1.46875 0 2.28125 0.703125q0.828125 0.703125 0.828125 1.9375q0 1.375 -1.234375 2.21875q-1.234375 0.84375 -3.109375 0.84375q-0.96875 0 -2.03125 -0.34375q-1.0625 -0.34375 -1.71875 -0.828125zm3.734375 -11.421875q-0.90625 0 -1.5 0.65625q-0.578125 0.640625 -0.578125 1.578125q0 1.03125 0.5625 1.71875q0.5625 0.671875 1.515625 0.671875q0.9375 0 1.46875 -0.65625q0.53125 -0.671875 0.53125 -1.734375q0 -0.9375 -0.578125 -1.578125q-0.5625 -0.65625 -1.421875 -0.65625zm11.598938 7.5625q-1.046875 1.328125 -3.234375 1.328125q-1.171875 0 -2.03125 -0.84375q-0.84375 -0.859375 -0.84375 -2.125q0 -1.5 1.3125 -2.546875q1.328125 -1.046875 3.375 -1.046875q0.5625 0 1.265625 0.25q0 -2.421875 -2.15625 -2.421875q-1.65625 0 -2.546875 0.890625l-0.734375 -1.46875q0.5 -0.40625 1.375 -0.703125q0.890625 -0.296875 1.703125 -0.296875q2.15625 0 3.140625 0.984375q0.984375 0.984375 0.984375 3.125l0 3.5625q0 1.3125 0.765625 1.75l0 0.875q-1.0625 0 -1.609375 -0.296875q-0.53125 -0.3125 -0.765625 -1.015625zm-0.15625 -3.734375q-0.84375 -0.1875 -1.171875 -0.1875q-1.34375 0 -2.1875 0.6875q-0.84375 0.6875 -0.84375 1.625q0 1.546875 1.828125 1.546875q1.34375 0 2.375 -1.28125l0 -2.390625zm6.114319 4.328125l0 4.4375l-1.765625 0l0 -13.828125l1.765625 0l0 0.8125q1.0 -1.0 2.421875 -1.0q2.109375 0 3.28125 1.328125q1.1875 1.3125 1.1875 3.859375q0 2.25 -1.1875 3.6875q-1.1875 1.4375 -3.4375 1.4375q-0.625 0 -1.34375 -0.21875q-0.71875 -0.234375 -0.921875 -0.515625zm0 -7.25l0 5.796875q0.171875 0.25 0.703125 0.484375q0.546875 0.21875 1.046875 0.21875q3.28125 0 3.28125 -3.71875q0 -1.875 -0.78125 -2.75q-0.765625 -0.875 -2.484375 -0.875q-0.375 0 -0.921875 0.265625q-0.53125 0.25 -0.84375 0.578125zm20.128357 7.796875l0 -6.296875q0 -2.34375 -2.03125 -2.34375q-0.640625 0 -1.203125 0.40625q-0.546875 0.390625 -0.75 0.890625l0 7.34375l-1.765625 0l0 -7.0625q0 -0.734375 -0.546875 -1.15625q-0.546875 -0.421875 -1.46875 -0.421875q-0.515625 0 -1.125 0.40625q-0.59375 0.40625 -0.84375 0.90625l0 7.328125l-1.765625 0l0 -9.9375l1.15625 0l0.578125 1.15625q1.03125 -1.34375 2.546875 -1.34375q2.140625 0 3.0 1.328125q0.296875 -0.5625 1.09375 -0.9375q0.8125 -0.390625 1.671875 -0.390625q1.53125 0 2.375 0.921875q0.84375 0.90625 0.84375 2.5625l0 6.640625l-1.765625 0zm5.81427 -13.6875q0.453125 0 0.765625 0.328125q0.328125 0.3125 0.328125 0.75q0 0.453125 -0.328125 0.78125q-0.3125 0.3125 -0.765625 0.3125q-0.453125 0 -0.78125 -0.3125q-0.3125 -0.328125 -0.3125 -0.78125q0 -0.453125 0.3125 -0.765625q0.3125 -0.3125 0.78125 -0.3125zm-0.96875 13.6875l0 -8.453125l-1.359375 0l0 -1.484375l3.125 0l0 9.9375l-1.765625 0zm10.569946 0l0 -5.78125q0 -1.578125 -0.484375 -2.21875q-0.46875 -0.640625 -1.59375 -0.640625q-0.59375 0 -1.25 0.375q-0.65625 0.359375 -1.015625 0.875l0 7.390625l-1.765625 0l0 -9.9375l1.203125 0l0.5625 1.28125q0.875 -1.46875 2.84375 -1.46875q3.265625 0 3.265625 3.96875l0 6.15625l-1.765625 0zm10.380981 -0.015625l0 -0.734375q-0.90625 0.921875 -2.671875 0.921875q-1.859375 0 -3.015625 -1.328125q-1.15625 -1.34375 -1.15625 -3.5625q0 -2.234375 1.328125 -3.8125q1.34375 -1.59375 3.1875 -1.59375q1.53125 0 2.328125 0.734375l0 -4.625l1.765625 0l0 14.0l-1.765625 0zm0 -7.625q-0.65625 -1.0 -1.828125 -1.0q-1.40625 0 -2.296875 1.0625q-0.875 1.0625 -0.875 2.6875q0 3.59375 3.265625 3.59375q0.421875 0 1.0 -0.265625q0.59375 -0.265625 0.734375 -0.5625l0 -5.515625zm12.472107 2.84375l-7.171875 0q0 1.75 0.96875 2.6875q0.84375 0.8125 2.15625 0.8125q1.515625 0 2.53125 -0.890625l0.734375 1.28125q-0.40625 0.40625 -1.25 0.703125q-1.046875 0.390625 -2.359375 0.390625q-1.859375 0 -3.171875 -1.265625q-1.453125 -1.40625 -1.453125 -3.78125q0 -2.453125 1.484375 -3.9375q1.34375 -1.328125 3.171875 -1.328125q2.125 0 3.328125 1.203125q1.171875 1.140625 1.171875 3.046875q0 0.59375 -0.140625 1.078125zm-4.28125 -3.84375q-1.171875 0 -1.96875 0.765625q-0.765625 0.71875 -0.875 1.796875l5.5 0q0 -1.0625 -0.65625 -1.78125q-0.734375 -0.78125 -2.0 -0.78125zm11.487793 0.40625q-0.578125 -0.40625 -1.15625 -0.40625q-0.9375 0 -1.640625 0.875q-0.703125 0.859375 -0.703125 2.0625l0 5.703125l-1.765625 0l0 -9.9375l1.765625 0l0 1.59375q0.96875 -1.78125 2.859375 -1.78125q0.484375 0 1.375 0.171875l-0.734375 1.71875z" fill-rule="nonzero"></path><path fill="#000000" fill-opacity="0.0" d="m564.1575 200.90814c0 -21.49736 0.01574707 -32.246674 0.03149414 -42.994705c0.01574707 -10.748032 0.03149414 -21.494781 0.03149414 -42.989555" fill-rule="evenodd"></path><path stroke="#000000" stroke-width="1.0" stroke-linejoin="round" stroke-linecap="butt" d="m564.15814 197.48105l0.0020751953 -10.848587c0.0017089844 -4.198761 0.0041503906 -7.8936768 0.007080078 -11.252686c0.00592041 -6.717987 0.013793945 -12.092331 0.02166748 -17.466354c0.01574707 -10.748032 0.03149414 -21.494766 0.03149414 -42.98954" fill-rule="evenodd"></path><path fill="#000000" stroke="#000000" stroke-width="1.0" stroke-linecap="butt" d="m564.15814 197.48105l-1.1243896 -1.1248016l1.1240234 3.089981l1.1251221 -3.0895538z" fill-rule="evenodd"></path><path fill="#000000" fill-opacity="0.0" d="m564.1575 136.70079l116.59839 0l0 42.4252l-116.59839 0z" fill-rule="evenodd"></path><path fill="#000000" d="m582.7825 158.82391l-7.171875 0q0 1.75 0.96875 2.6875q0.84375 0.8125 2.15625 0.8125q1.515625 0 2.53125 -0.890625l0.734375 1.28125q-0.40625 0.40625 -1.25 0.703125q-1.046875 0.390625 -2.359375 0.390625q-1.859375 0 -3.171875 -1.265625q-1.453125 -1.40625 -1.453125 -3.78125q0 -2.453125 1.484375 -3.9375q1.34375 -1.328125 3.171875 -1.328125q2.125 0 3.328125 1.203125q1.171875 1.140625 1.171875 3.046875q0 0.59375 -0.140625 1.078125zm-4.28125 -3.84375q-1.171875 0 -1.96875 0.765625q-0.765625 0.71875 -0.875 1.796875l5.5 0q0 -1.0625 -0.65625 -1.78125q-0.734375 -0.78125 -2.0 -0.78125zm17.581543 8.640625l0 -6.296875q0 -2.34375 -2.03125 -2.34375q-0.640625 0 -1.203125 0.40625q-0.546875 0.390625 -0.75 0.890625l0 7.34375l-1.765625 0l0 -7.0625q0 -0.734375 -0.546875 -1.15625q-0.546875 -0.421875 -1.46875 -0.421875q-0.515625 0 -1.125 0.40625q-0.59375 0.40625 -0.84375 0.90625l0 7.328125l-1.765625 0l0 -9.9375l1.15625 0l0.578125 1.15625q1.03125 -1.34375 2.546875 -1.34375q2.140625 0 3.0 1.328125q0.296875 -0.5625 1.09375 -0.9375q0.8125 -0.390625 1.671875 -0.390625q1.53125 0 2.375 0.921875q0.84375 0.90625 0.84375 2.5625l0 6.640625l-1.765625 0zm5.75177 -0.546875l0 4.4375l-1.765625 0l0 -13.828125l1.765625 0l0 0.8125q1.0 -1.0 2.421875 -1.0q2.109375 0 3.28125 1.328125q1.1875 1.3125 1.1875 3.859375q0 2.25 -1.1875 3.6875q-1.1875 1.4375 -3.4375 1.4375q-0.625 0 -1.34375 -0.21875q-0.71875 -0.234375 -0.921875 -0.515625zm0 -7.25l0 5.796875q0.171875 0.25 0.703125 0.484375q0.546875 0.21875 1.046875 0.21875q3.28125 0 3.28125 -3.71875q0 -1.875 -0.78125 -2.75q-0.765625 -0.875 -2.484375 -0.875q-0.375 0 -0.921875 0.265625q-0.53125 0.25 -0.84375 0.578125zm8.768921 4.984375l0 -11.203125l1.765625 0l0 10.90625q0 0.796875 0.453125 1.265625q0.46875 0.453125 1.203125 0.453125l0 1.578125q-3.421875 0 -3.421875 -3.0zm4.720886 -2.171875q0 -2.3125 1.234375 -3.71875q1.234375 -1.421875 3.265625 -1.421875q2.125 0 3.296875 1.359375q1.1875 1.359375 1.1875 3.78125q0 2.390625 -1.203125 3.78125q-1.203125 1.390625 -3.28125 1.390625q-2.125 0 -3.3125 -1.390625q-1.1875 -1.40625 -1.1875 -3.78125zm1.84375 0q0 3.734375 2.65625 3.734375q1.234375 0 1.921875 -1.0q0.703125 -1.0 0.703125 -2.734375q0 -3.703125 -2.625 -3.703125q-1.21875 0 -1.9375 0.984375q-0.71875 0.984375 -0.71875 2.71875zm12.605103 6.671875q-0.34375 0.953125 -1.453125 1.578125q-1.09375 0.625 -2.4375 0.625l0 -1.578125q1.09375 0 1.875 -0.515625q0.796875 -0.5 0.796875 -1.25q0 -0.8125 -0.296875 -1.609375q-0.28125 -0.796875 -0.734375 -1.96875l-2.6875 -6.90625l1.796875 0l2.921875 7.6875l2.625 -7.6875l1.8125 0l-4.21875 11.625zm13.778748 -6.484375l-7.171875 0q0 1.75 0.96875 2.6875q0.84375 0.8125 2.15625 0.8125q1.515625 0 2.53125 -0.890625l0.734375 1.28125q-0.40625 0.40625 -1.25 0.703125q-1.046875 0.390625 -2.359375 0.390625q-1.859375 0 -3.171875 -1.265625q-1.453125 -1.40625 -1.453125 -3.78125q0 -2.453125 1.484375 -3.9375q1.34375 -1.328125 3.171875 -1.328125q2.125 0 3.328125 1.203125q1.171875 1.140625 1.171875 3.046875q0 0.59375 -0.140625 1.078125zm-4.28125 -3.84375q-1.171875 0 -1.96875 0.765625q-0.765625 0.71875 -0.875 1.796875l5.5 0q0 -1.0625 -0.65625 -1.78125q-0.734375 -0.78125 -2.0 -0.78125zm11.487793 0.40625q-0.578125 -0.40625 -1.15625 -0.40625q-0.9375 0 -1.640625 0.875q-0.703125 0.859375 -0.703125 2.0625l0 5.703125l-1.765625 0l0 -9.9375l1.765625 0l0 1.59375q0.96875 -1.78125 2.859375 -1.78125q0.484375 0 1.375 0.171875l-0.734375 1.71875z" fill-rule="nonzero"></path><path fill="#f4cccc" d="m247.42252 197.19948l0 0c0 -22.030518 24.529144 -39.88977 54.787384 -39.88977l0 0c30.25827 0 54.787415 17.859253 54.787415 39.88977l0 0c0 22.030502 -24.529144 39.889755 -54.787415 39.889755l0 0c-30.25824 0 -54.787384 -17.859253 -54.787384 -39.889755z" fill-rule="evenodd"></path><path stroke="#000000" stroke-width="1.0" stroke-linejoin="round" stroke-linecap="butt" d="m247.42252 197.19948l0 0c0 -22.030518 24.529144 -39.88977 54.787384 -39.88977l0 0c30.25827 0 54.787415 17.859253 54.787415 39.88977l0 0c0 22.030502 -24.529144 39.889755 -54.787415 39.889755l0 0c-30.25824 0 -54.787384 -17.859253 -54.787384 -39.889755z" fill-rule="evenodd"></path><path fill="#000000" d="m276.38943 195.5726l-1.15625 0l0 -1.390625l1.15625 0l0 -2.078125l1.75 -0.671875l0 2.75l2.734375 0l0 1.390625l-2.734375 0l0 4.9375q0 1.25 0.421875 1.78125q0.421875 0.53125 1.359375 0.53125q0.6875 0 1.40625 -0.34375l0.265625 1.546875q-1.09375 0.28125 -2.40625 0.28125q-1.1875 0 -2.0 -0.875q-0.796875 -0.875 -0.796875 -2.21875l0 -5.640625zm8.584412 -5.140625q0.453125 0 0.765625 0.328125q0.328125 0.3125 0.328125 0.75q0 0.453125 -0.328125 0.78125q-0.3125 0.3125 -0.765625 0.3125q-0.453125 0 -0.78125 -0.3125q-0.3125 -0.328125 -0.3125 -0.78125q0 -0.453125 0.3125 -0.765625q0.3125 -0.3125 0.78125 -0.3125zm-0.96875 13.6875l0 -8.453125l-1.359375 0l0 -1.484375l3.125 0l0 9.9375l-1.765625 0zm4.6011963 -2.8125l0 -11.203125l1.765625 0l0 10.90625q0 0.796875 0.453125 1.265625q0.46875 0.453125 1.203125 0.453125l0 1.578125q-3.421875 0 -3.421875 -3.0zm6.861511 2.09375l-0.609375 0.90625l-0.890625 0l0 -14.203125l1.765625 0l0 4.8125q0.25 -0.34375 0.9375 -0.625q0.6875 -0.296875 1.359375 -0.296875q2.046875 0 3.3125 1.421875q1.265625 1.40625 1.265625 3.546875q0 2.5 -1.28125 3.921875q-1.265625 1.421875 -3.4375 1.421875q-0.703125 0 -1.390625 -0.265625q-0.671875 -0.265625 -1.03125 -0.640625zm0.265625 -7.140625l0 5.734375q0 0.15625 0.65625 0.5q0.65625 0.328125 1.0 0.328125q1.796875 0 2.578125 -0.859375q0.78125 -0.875 0.78125 -2.90625q0 -1.6875 -0.90625 -2.625q-0.90625 -0.953125 -2.453125 -0.953125q-0.328125 0 -0.90625 0.28125q-0.578125 0.28125 -0.75 0.5zm10.300201 -2.078125l0 6.34375q0 2.296875 2.0 2.296875q0.875 0 1.59375 -0.5q0.71875 -0.5 0.953125 -1.15625l0 -6.984375l1.765625 0l0 9.9375l-1.765625 0l0 -1.375q-0.296875 0.59375 -1.203125 1.078125q-0.890625 0.484375 -1.734375 0.484375q-1.640625 0 -2.515625 -0.9375q-0.859375 -0.9375 -0.859375 -2.671875l0 -6.515625l1.765625 0zm13.927887 1.703125q-0.578125 -0.40625 -1.15625 -0.40625q-0.9375 0 -1.640625 0.875q-0.703125 0.859375 -0.703125 2.0625l0 5.703125l-1.765625 0l0 -9.9375l1.765625 0l0 1.59375q0.96875 -1.78125 2.859375 -1.78125q0.484375 0 1.375 0.171875l-0.734375 1.71875zm1.4855347 10.953125l0.953125 -1.40625q1.546875 1.03125 2.84375 1.03125q1.1875 0 1.875 -0.421875q0.703125 -0.40625 0.703125 -1.015625q0 -1.21875 -1.75 -1.21875q-0.296875 0 -1.078125 0.15625q-0.765625 0.140625 -1.203125 0.140625q-2.125 0 -2.125 -1.59375q0 -0.484375 0.5 -0.875q0.5 -0.40625 1.234375 -0.59375q-2.09375 -0.96875 -2.09375 -3.40625q0 -1.5625 1.078125 -2.59375q1.078125 -1.046875 2.6875 -1.046875q1.453125 0 2.28125 0.609375l0.890625 -1.0625l1.140625 1.09375l-1.046875 0.796875q0.671875 0.875 0.671875 2.296875q0 1.5 -0.9375 2.53125q-0.9375 1.015625 -2.453125 1.15625l-1.46875 0.15625q-0.25 0.015625 -0.6875 0.1875q-0.4375 0.171875 -0.4375 0.453125q0 0.390625 0.90625 0.390625q0.40625 0 1.25 -0.140625q0.84375 -0.15625 1.25 -0.15625q1.46875 0 2.28125 0.703125q0.828125 0.703125 0.828125 1.9375q0 1.375 -1.234375 2.21875q-1.234375 0.84375 -3.109375 0.84375q-0.96875 0 -2.03125 -0.34375q-1.0625 -0.34375 -1.71875 -0.828125zm3.734375 -11.421875q-0.90625 0 -1.5 0.65625q-0.578125 0.640625 -0.578125 1.578125q0 1.03125 0.5625 1.71875q0.5625 0.671875 1.515625 0.671875q0.9375 0 1.46875 -0.65625q0.53125 -0.671875 0.53125 -1.734375q0 -0.9375 -0.578125 -1.578125q-0.5625 -0.65625 -1.421875 -0.65625z" fill-rule="nonzero"></path><path fill="#000000" fill-opacity="0.0" d="m512.2677 80.461945c-38.81732 0 -58.22522 29.181099 -77.634674 58.362198c-19.409454 29.181107 -38.820435 58.362213 -77.6409 58.362213" fill-rule="evenodd"></path><path stroke="#000000" stroke-width="1.0" stroke-linejoin="round" stroke-linecap="butt" d="m512.2677 80.461945c-38.81732 0 -58.22522 29.181099 -77.634674 58.362198c-9.704712 14.590561 -19.409851 29.181107 -31.54132 40.124023c-6.065735 5.471451 -12.738068 10.031006 -20.320251 13.222687c-3.7911072 1.5958405 -7.8096313 2.8497162 -12.093536 3.7046356c-2.1419983 0.42745972 -4.350281 0.7551727 -6.6296997 0.9760132c-1.139679 0.110443115 -2.2971191 0.19413757 -3.4729614 0.25024414l-0.1569519 0.0065460205" fill-rule="evenodd"></path><path fill="#000000" stroke="#000000" stroke-width="1.0" stroke-linecap="butt" d="m360.41833 197.10829l1.0986633 -1.1499023l-3.0633545 1.1946564l3.1145935 1.0539246z" fill-rule="evenodd"></path><path fill="#000000" fill-opacity="0.0" d="m422.24277 136.70143l116.59842 0l0 42.4252l-116.59842 0z" fill-rule="evenodd"></path><path fill="#000000" d="m433.99277 162.90268l-0.609375 0.90625l-0.890625 0l0 -14.203125l1.765625 0l0 4.8125q0.25 -0.34375 0.9375 -0.625q0.6875 -0.296875 1.359375 -0.296875q2.046875 0 3.3125 1.421875q1.265625 1.40625 1.265625 3.546875q0 2.5 -1.28125 3.921875q-1.265625 1.421875 -3.4375 1.421875q-0.703125 0 -1.390625 -0.265625q-0.671875 -0.265625 -1.03125 -0.640625zm0.265625 -7.140625l0 5.734375q0 0.15625 0.65625 0.5q0.65625 0.328125 1.0 0.328125q1.796875 0 2.578125 -0.859375q0.78125 -0.875 0.78125 -2.90625q0 -1.6875 -0.90625 -2.625q-0.90625 -0.953125 -2.453125 -0.953125q-0.328125 0 -0.90625 0.28125q-0.578125 0.28125 -0.75 0.5zm10.456421 -5.828125q0.453125 0 0.765625 0.328125q0.328125 0.3125 0.328125 0.75q0 0.453125 -0.328125 0.78125q-0.3125 0.3125 -0.765625 0.3125q-0.453125 0 -0.78125 -0.3125q-0.3125 -0.328125 -0.3125 -0.78125q0 -0.453125 0.3125 -0.765625q0.3125 -0.3125 0.78125 -0.3125zm-0.96875 13.6875l0 -8.453125l-1.359375 0l0 -1.484375l3.125 0l0 9.9375l-1.765625 0zm9.866821 -8.234375q-0.578125 -0.40625 -1.15625 -0.40625q-0.9375 0 -1.640625 0.875q-0.703125 0.859375 -0.703125 2.0625l0 5.703125l-1.765625 0l0 -9.9375l1.765625 0l0 1.59375q0.96875 -1.78125 2.859375 -1.78125q0.484375 0 1.375 0.171875l-0.734375 1.71875zm2.4855347 -0.3125l-1.15625 0l0 -1.390625l1.15625 0l0 -2.078125l1.75 -0.671875l0 2.75l2.734375 0l0 1.390625l-2.734375 0l0 4.9375q0 1.25 0.421875 1.78125q0.421875 0.53125 1.359375 0.53125q0.6875 0 1.40625 -0.34375l0.265625 1.546875q-1.09375 0.28125 -2.40625 0.28125q-1.1875 0 -2.0 -0.875q-0.796875 -0.875 -0.796875 -2.21875l0 -5.640625zm12.881287 8.546875l0 -6.25q0 -1.109375 -0.546875 -1.75q-0.546875 -0.640625 -1.546875 -0.640625q-0.640625 0 -1.28125 0.375q-0.640625 0.375 -0.984375 0.875l0 7.390625l-1.765625 0l0 -14.015625l1.765625 0l0 5.171875q0.359375 -0.546875 1.140625 -0.90625q0.78125 -0.375 1.609375 -0.375q1.578125 0 2.46875 1.046875q0.90625 1.03125 0.90625 2.828125l0 6.25l-1.765625 0zm11.454712 -0.546875l0 4.4375l-1.765625 0l0 -13.828125l1.765625 0l0 0.8125q1.0 -1.0 2.421875 -1.0q2.109375 0 3.28125 1.328125q1.1875 1.3125 1.1875 3.859375q0 2.25 -1.1875 3.6875q-1.1875 1.4375 -3.4375 1.4375q-0.625 0 -1.34375 -0.21875q-0.71875 -0.234375 -0.921875 -0.515625zm0 -7.25l0 5.796875q0.171875 0.25 0.703125 0.484375q0.546875 0.21875 1.046875 0.21875q3.28125 0 3.28125 -3.71875q0 -1.875 -0.78125 -2.75q-0.765625 -0.875 -2.484375 -0.875q-0.375 0 -0.921875 0.265625q-0.53125 0.25 -0.84375 0.578125zm8.768951 4.984375l0 -11.203125l1.765625 0l0 10.90625q0 0.796875 0.453125 1.265625q0.46875 0.453125 1.203125 0.453125l0 1.578125q-3.421875 0 -3.421875 -3.0zm10.970886 1.671875q-1.046875 1.328125 -3.234375 1.328125q-1.171875 0 -2.03125 -0.84375q-0.84375 -0.859375 -0.84375 -2.125q0 -1.5 1.3125 -2.546875q1.328125 -1.046875 3.375 -1.046875q0.5625 0 1.265625 0.25q0 -2.421875 -2.15625 -2.421875q-1.65625 0 -2.546875 0.890625l-0.734375 -1.46875q0.5 -0.40625 1.375 -0.703125q0.890625 -0.296875 1.703125 -0.296875q2.15625 0 3.140625 0.984375q0.984375 0.984375 0.984375 3.125l0 3.5625q0 1.3125 0.765625 1.75l0 0.875q-1.0625 0 -1.609375 -0.296875q-0.53125 -0.3125 -0.765625 -1.015625zm-0.15625 -3.734375q-0.84375 -0.1875 -1.171875 -0.1875q-1.34375 0 -2.1875 0.6875q-0.84375 0.6875 -0.84375 1.625q0 1.546875 1.828125 1.546875q1.34375 0 2.375 -1.28125l0 -2.390625zm11.848694 -4.25l-0.875 1.234375q-0.265625 -0.265625 -0.953125 -0.5q-0.671875 -0.25 -1.34375 -0.25q-1.4375 0 -2.28125 1.015625q-0.84375 1.0 -0.84375 2.75q0 1.75 0.859375 2.671875q0.875 0.90625 2.40625 0.90625q1.1875 0 2.390625 -0.921875l0.6875 1.484375q-1.40625 0.921875 -3.515625 0.921875q-2.03125 0 -3.359375 -1.359375q-1.3125 -1.375 -1.3125 -3.703125q0 -2.375 1.375 -3.8125q1.375 -1.4375 3.765625 -1.4375q0.765625 0 1.671875 0.328125q0.90625 0.328125 1.328125 0.671875zm10.1119995 4.328125l-7.171875 0q0 1.75 0.96875 2.6875q0.84375 0.8125 2.15625 0.8125q1.515625 0 2.53125 -0.890625l0.734375 1.28125q-0.40625 0.40625 -1.25 0.703125q-1.046875 0.390625 -2.359375 0.390625q-1.859375 0 -3.171875 -1.265625q-1.453125 -1.40625 -1.453125 -3.78125q0 -2.453125 1.484375 -3.9375q1.34375 -1.328125 3.171875 -1.328125q2.125 0 3.328125 1.203125q1.171875 1.140625 1.171875 3.046875q0 0.59375 -0.140625 1.078125zm-4.28125 -3.84375q-1.171875 0 -1.96875 0.765625q-0.765625 0.71875 -0.875 1.796875l5.5 0q0 -1.0625 -0.65625 -1.78125q-0.734375 -0.78125 -2.0 -0.78125z" fill-rule="nonzero"></path></g></svg>

